<svg xmlns="http://www.w3.org/2000/svg" viewBox="0 0 1280 160">
    <defs>
        <style>
            .cls-1 {
                fill:#999;
            }
            .cls-2, .cls-3 {
                fill:none;
                stroke-miterlimit:10;
            }
            .cls-2 {
                stroke:#999;
                stroke-width:3px;
            }
            .cls-3 {
                stroke:#e6e6e6;
            }
            .cls-4 {
                fill:#e99415;
            }
            
        </style>
    </defs>
    <title>fingertab_v3</title>
    <g id='background'>
        <circle cx="298.26" cy="80.43" r="7.5" />
        <circle cx="461.26" cy="80.43" r="7.5" />
        <circle cx="607.26" cy="80.43" r="7.5" />
        <circle cx="736.26" cy="80.43" r="7.5" />
        <circle cx="904.26" cy="102.43" r="7.5" />
        <circle cx="1044.26" cy="80.43" r="7.5" />
        <circle cx="1126.26" cy="80.43" r="7.5" />
        <circle cx="1198.26" cy="80.43" r="7.5" />
        <circle cx="1265.26" cy="80.43" r="7.5" />
        <circle cx="904.26" cy="57.43" r="7.5" />
        <rect class="cls-1" x="64.49" width="10" height="160" />
        <line class="cls-2" x1="162.51" x2="162.51" y2="160" />
        <line class="cls-2" x1="255.49" x2="255.49" y2="160" />
        <line class="cls-2" x1="340.18" x2="340.18" y2="160" />
        <line class="cls-2" x1="423.2" x2="423.2" y2="160" />
        <line class="cls-2" x1="499.22" x2="499.22" y2="160" />
        <line class="cls-2" x1="572.63" x2="572.63" y2="160" />
        <line class="cls-2" x1="641.66" x2="641.66" y2="160" />
        <line class="cls-2" x1="705.45" x2="705.45" y2="160" />
        <line class="cls-2" x1="767.5" x2="767.5" y2="160" />
        <line class="cls-2" x1="825.17" x2="825.17" y2="160" />
        <line class="cls-2" x1="878.48" x2="878.48" y2="160" />
        <line class="cls-2" x1="930.04" x2="930.04" y2="160" />
        <line class="cls-2" x1="978.97" x2="978.97" y2="160" />
        <line class="cls-2" x1="1021.79" x2="1021.79" y2="160" />
        <line class="cls-2" x1="1066.36" x2="1066.36" y2="160" />
        <line class="cls-2" x1="1107.43" x2="1107.43" y2="160" />
        <line class="cls-2" x1="1145.01" x2="1145.01" y2="160" />
        <line class="cls-2" x1="1180.84" x2="1180.84" y2="160" />
        <line class="cls-2" x1="1214.92" x2="1214.92" y2="160" />
        <line class="cls-2" x1="1247.25" x2="1247.25" y2="160" />
        <line class="cls-3" x1="74.25" y1="137.14" x2="1280" y2="137.14" />
        <line class="cls-3" x1="74.25" y1="114.29" x2="1280" y2="114.29" />
        <line class="cls-3" x1="74.25" y1="91.43" x2="1280" y2="91.43" />
        <line class="cls-3" x1="74.25" y1="68.57" x2="1280" y2="68.57" />
        <line class="cls-3" x1="74.25" y1="45.71" x2="1280" y2="45.71" />
        <line class="cls-3" x1="74.25" y1="22.86" x2="1280" y2="22.86" />
    </g>
    <g id="string">
        <g id="str6" opacity="0">
            <line class="cls-3" x1="74.25" y1="137.14" x2="1280" y2="137.14" />
            <path class="cls-4" d="M48.26,131.14a6,6,0,1,1-6,6,6,6,0,0,1,6-6m0-3a9,9,0,1,0,9,9,9,9,0,0,0-9-9Z" />
            <animate attributeName="opacity" from="1" to="0" begin="indefinite" dur="1s" repeatCount="1" /></g>
        <g id="str5" opacity="0">
            <line class="cls-3" x1="74.25" y1="114.29" x2="1280" y2="114.29" />
            <path class="cls-4" d="M48.26,108.29a6,6,0,1,1-6,6,6,6,0,0,1,6-6m0-3a9,9,0,1,0,9,9,9,9,0,0,0-9-9Z" />
            <animate attributeName="opacity" from="1" to="0" begin="indefinite" dur="1s" repeatCount="1" /></g>
        <g id="str4" opacity="0">
            <line class="cls-3" x1="74.25" y1="91.43" x2="1280" y2="91.43" />
            <path class="cls-4" d="M48.26,85.43a6,6,0,1,1-6,6,6,6,0,0,1,6-6m0-3a9,9,0,1,0,9,9,9,9,0,0,0-9-9Z" />
            <animate attributeName="opacity" from="1" to="0" begin="indefinite" dur="1s" repeatCount="1" /></g>
        <g id="str3" opacity="0">
            <line class="cls-3" x1="74.25" y1="68.57" x2="1280" y2="68.57" />
            <path class="cls-4" d="M48.26,62.57a6,6,0,1,1-6,6,6,6,0,0,1,6-6m0-3a9,9,0,1,0,9,9,9,9,0,0,0-9-9Z" />
            <animate attributeName="opacity" from="1" to="0" begin="indefinite" dur="1s" repeatCount="1" /></g>
        <g id="str2" opacity="0">
            <line class="cls-3" x1="74.25" y1="45.71" x2="1280" y2="45.71" />
            <path class="cls-4" d="M48.26,39.71a6,6,0,1,1-6,6,6,6,0,0,1,6-6m0-3a9,9,0,1,0,9,9,9,9,0,0,0-9-9Z" />
            <animate attributeName="opacity" from="1" to="0" begin="indefinite" dur="1s" repeatCount="1" /></g>
        <g id="str1" opacity="0">
            <line class="cls-3" x1="74.25" y1="22.86" x2="1280" y2="22.86" />
            <path class="cls-4" d="M48.26,16.86a6,6,0,1,1-6,6,6,6,0,0,1,6-6m0-3a9,9,0,1,0,9,9,9,9,0,0,0-9-9Z" />
            <animate attributeName="opacity" from="1" to="0" begin="indefinite" dur="1s" repeatCount="1" /></g>
    </g>
    <g id="points">
        <!-- string 1 -->
        <circle class="cls-4" opacity="0" cx="118.26" cy="22.86" r="9" />
        <circle class="cls-4" opacity="0" cx="209.26" cy="22.86" r="9" />
        <circle class="cls-4" opacity="0" cx="298.26" cy="22.86" r="9" />
        <circle class="cls-4" opacity="0" cx="381.26" cy="22.86" r="9" />
        <circle class="cls-4" opacity="0" cx="461.26" cy="22.86" r="9" />
        <circle class="cls-4" opacity="0" cx="536.26" cy="22.86" r="9" />
        <circle class="cls-4" opacity="0" cx="607.26" cy="22.86" r="9" />
        <circle class="cls-4" opacity="0" cx="673.26" cy="22.86" r="9" />
        <circle class="cls-4" opacity="0" cx="736.26" cy="22.86" r="9" />
        <circle class="cls-4" opacity="0" cx="796.26" cy="22.86" r="9" />
        <circle class="cls-4" opacity="0" cx="852.26" cy="22.86" r="9" />
        <circle class="cls-4" opacity="0" cx="904.26" cy="22.86" r="9" />
        <circle class="cls-4" opacity="0" cx="956.26" cy="22.86" r="9" />
        <circle class="cls-4" opacity="0" cx="1000.26" cy="22.86" r="9" />
        <circle class="cls-4" opacity="0" cx="1044.26" cy="22.86" r="9" />
        <circle class="cls-4" opacity="0" cx="1087.26" cy="22.86" r="9" />
        <circle class="cls-4" opacity="0" cx="1126.26" cy="22.86" r="9" />
        <circle class="cls-4" opacity="0" cx="1163.26" cy="22.86" r="9" />
        <circle class="cls-4" opacity="0" cx="1198.26" cy="22.86" r="9" />
        <circle class="cls-4" opacity="0" cx="1231.26" cy="22.86" r="9" />
        <circle class="cls-4" opacity="0" cx="1265.26" cy="22.86" r="9" />
        <!-- string 2 -->
        <circle class="cls-4" opacity="0" cx="118.26" cy="45.71" r="9" />
        <circle class="cls-4" opacity="0" cx="209.26" cy="45.71" r="9" />
        <circle class="cls-4" opacity="0" cx="298.26" cy="45.71" r="9" />
        <circle class="cls-4" opacity="0" cx="381.26" cy="45.71" r="9" />
        <circle class="cls-4" opacity="0" cx="461.26" cy="45.71" r="9" />
        <circle class="cls-4" opacity="0" cx="536.26" cy="45.71" r="9" />
        <circle class="cls-4" opacity="0" cx="607.26" cy="45.71" r="9" />
        <circle class="cls-4" opacity="0" cx="673.26" cy="45.71" r="9" />
        <circle class="cls-4" opacity="0" cx="736.26" cy="45.71" r="9" />
        <circle class="cls-4" opacity="0" cx="796.26" cy="45.71" r="9" />
        <circle class="cls-4" opacity="0" cx="852.26" cy="45.71" r="9" />
        <circle class="cls-4" opacity="0" cx="904.26" cy="45.71" r="9" />
        <circle class="cls-4" opacity="0" cx="956.26" cy="45.71" r="9" />
        <circle class="cls-4" opacity="0" cx="1000.26" cy="45.71" r="9" />
        <circle class="cls-4" opacity="0" cx="1044.26" cy="45.71" r="9" />
        <circle class="cls-4" opacity="0" cx="1087.26" cy="45.71" r="9" />
        <circle class="cls-4" opacity="0" cx="1126.26" cy="45.71" r="9" />
        <circle class="cls-4" opacity="0" cx="1163.26" cy="45.71" r="9" />
        <circle class="cls-4" opacity="0" cx="1198.26" cy="45.71" r="9" />
        <circle class="cls-4" opacity="0" cx="1231.26" cy="45.71" r="9" />
        <circle class="cls-4" opacity="0" cx="1265.26" cy="45.71" r="9" />
        <!-- string 3 -->
        <circle class="cls-4" opacity="0" cx="118.26" cy="68.57" r="9" />
        <circle class="cls-4" opacity="0" cx="209.26" cy="68.57" r="9" />
        <circle class="cls-4" opacity="0" cx="298.26" cy="68.57" r="9" />
        <circle class="cls-4" opacity="0" cx="381.26" cy="68.57" r="9" />
        <circle class="cls-4" opacity="0" cx="461.26" cy="68.57" r="9" />
        <circle class="cls-4" opacity="0" cx="536.26" cy="68.57" r="9" />
        <circle class="cls-4" opacity="0" cx="607.26" cy="68.57" r="9" />
        <circle class="cls-4" opacity="0" cx="673.26" cy="68.57" r="9" />
        <circle class="cls-4" opacity="0" cx="736.26" cy="68.57" r="9" />
        <circle class="cls-4" opacity="0" cx="796.26" cy="68.57" r="9" />
        <circle class="cls-4" opacity="0" cx="852.26" cy="68.57" r="9" />
        <circle class="cls-4" opacity="0" cx="904.26" cy="68.57" r="9" />
        <circle class="cls-4" opacity="0" cx="956.26" cy="68.57" r="9" />
        <circle class="cls-4" opacity="0" cx="1000.26" cy="68.57" r="9" />
        <circle class="cls-4" opacity="0" cx="1044.26" cy="68.57" r="9" />
        <circle class="cls-4" opacity="0" cx="1087.26" cy="68.57" r="9" />
        <circle class="cls-4" opacity="0" cx="1126.26" cy="68.57" r="9" />
        <circle class="cls-4" opacity="0" cx="1163.26" cy="68.57" r="9" />
        <circle class="cls-4" opacity="0" cx="1198.26" cy="68.57" r="9" />
        <circle class="cls-4" opacity="0" cx="1231.26" cy="68.57" r="9" />
        <circle class="cls-4" opacity="0" cx="1265.26" cy="68.57" r="9" />
        <!-- string 4 -->
        <circle class="cls-4" opacity="0" cx="118.26" cy="91.43" r="9" />
        <circle class="cls-4" opacity="0" cx="209.26" cy="91.43" r="9" />
        <circle class="cls-4" opacity="0" cx="298.26" cy="91.43" r="9" />
        <circle class="cls-4" opacity="0" cx="381.26" cy="91.43" r="9" />
        <circle class="cls-4" opacity="0" cx="461.26" cy="91.43" r="9" />
        <circle class="cls-4" opacity="0" cx="536.26" cy="91.43" r="9" />
        <circle class="cls-4" opacity="0" cx="607.26" cy="91.43" r="9" />
        <circle class="cls-4" opacity="0" cx="673.26" cy="91.43" r="9" />
        <circle class="cls-4" opacity="0" cx="736.26" cy="91.43" r="9" />
        <circle class="cls-4" opacity="0" cx="796.26" cy="91.43" r="9" />
        <circle class="cls-4" opacity="0" cx="852.26" cy="91.43" r="9" />
        <circle class="cls-4" opacity="0" cx="904.26" cy="91.43" r="9" />
        <circle class="cls-4" opacity="0" cx="956.26" cy="91.43" r="9" />
        <circle class="cls-4" opacity="0" cx="1000.26" cy="91.43" r="9" />
        <circle class="cls-4" opacity="0" cx="1044.26" cy="91.43" r="9" />
        <circle class="cls-4" opacity="0" cx="1087.26" cy="91.43" r="9" />
        <circle class="cls-4" opacity="0" cx="1126.26" cy="91.43" r="9" />
        <circle class="cls-4" opacity="0" cx="1163.26" cy="91.43" r="9" />
        <circle class="cls-4" opacity="0" cx="1198.26" cy="91.43" r="9" />
        <circle class="cls-4" opacity="0" cx="1231.26" cy="91.43" r="9" />
        <circle class="cls-4" opacity="0" cx="1265.26" cy="91.43" r="9" />
        <!-- string 5 -->
        <circle class="cls-4" opacity="0" cx="118.26" cy="114.29" r="9" />
        <circle class="cls-4" opacity="0" cx="209.26" cy="114.29" r="9" />
        <circle class="cls-4" opacity="0" cx="298.26" cy="114.29" r="9" />
        <circle class="cls-4" opacity="0" cx="381.26" cy="114.29" r="9" />
        <circle class="cls-4" opacity="0" cx="461.26" cy="114.29" r="9" />
        <circle class="cls-4" opacity="0" cx="536.26" cy="114.29" r="9" />
        <circle class="cls-4" opacity="0" cx="607.26" cy="114.29" r="9" />
        <circle class="cls-4" opacity="0" cx="673.26" cy="114.29" r="9" />
        <circle class="cls-4" opacity="0" cx="736.26" cy="114.29" r="9" />
        <circle class="cls-4" opacity="0" cx="796.26" cy="114.29" r="9" />
        <circle class="cls-4" opacity="0" cx="852.26" cy="114.29" r="9" />
        <circle class="cls-4" opacity="0" cx="904.26" cy="114.29" r="9" />
        <circle class="cls-4" opacity="0" cx="956.26" cy="114.29" r="9" />
        <circle class="cls-4" opacity="0" cx="1000.26" cy="114.29" r="9" />
        <circle class="cls-4" opacity="0" cx="1044.26" cy="114.29" r="9" />
        <circle class="cls-4" opacity="0" cx="1087.26" cy="114.29" r="9" />
        <circle class="cls-4" opacity="0" cx="1126.26" cy="114.29" r="9" />
        <circle class="cls-4" opacity="0" cx="1163.26" cy="114.29" r="9" />
        <circle class="cls-4" opacity="0" cx="1198.26" cy="114.29" r="9" />
        <circle class="cls-4" opacity="0" cx="1231.26" cy="114.29" r="9" />
        <circle class="cls-4" opacity="0" cx="1265.26" cy="114.29" r="9" />
        <!-- string 6 -->
        <circle class="cls-4" opacity="0" cx="118.26" cy="137.14" r="9" />
        <circle class="cls-4" opacity="0" cx="209.26" cy="137.14" r="9" />
        <circle class="cls-4" opacity="0" cx="298.26" cy="137.14" r="9" />
        <circle class="cls-4" opacity="0" cx="381.26" cy="137.14" r="9" />
        <circle class="cls-4" opacity="0" cx="461.26" cy="137.14" r="9" />
        <circle class="cls-4" opacity="0" cx="536.26" cy="137.14" r="9" />
        <circle class="cls-4" opacity="0" cx="607.26" cy="137.14" r="9" />
        <circle class="cls-4" opacity="0" cx="673.26" cy="137.14" r="9" />
        <circle class="cls-4" opacity="0" cx="736.26" cy="137.14" r="9" />
        <circle class="cls-4" opacity="0" cx="796.26" cy="137.14" r="9" />
        <circle class="cls-4" opacity="0" cx="852.26" cy="137.14" r="9" />
        <circle class="cls-4" opacity="0" cx="904.26" cy="137.14" r="9" />
        <circle class="cls-4" opacity="0" cx="956.26" cy="137.14" r="9" />
        <circle class="cls-4" opacity="0" cx="1000.26" cy="137.14" r="9" />
        <circle class="cls-4" opacity="0" cx="1044.26" cy="137.14" r="9" />
        <circle class="cls-4" opacity="0" cx="1087.26" cy="137.14" r="9" />
        <circle class="cls-4" opacity="0" cx="1126.26" cy="137.14" r="9" />
        <circle class="cls-4" opacity="0" cx="1163.26" cy="137.14" r="9" />
        <circle class="cls-4" opacity="0" cx="1198.26" cy="137.14" r="9" />
        <circle class="cls-4" opacity="0" cx="1231.26" cy="137.14" r="9" />
        <circle class="cls-4" opacity="0" cx="1265.26" cy="137.14" r="9" />
    </g>
</svg>