<svg xmlns="http://www.w3.org/2000/svg" xmlns:xlink="http://www.w3.org/1999/xlink" width="31" height="30" viewBox="0 0 31 30">
    <defs>
        <path id="a" d="M.005 15.485c-.009-.545.022-2.006.495-3.81.487-1.846 1.222-3.168 1.436-3.529a24.86 24.86 0 0 1 1.259-1.882c.247-.335.609-.758.905-1.05 1.172-1.161 1.752-1.731 3.669-2.845.764-.443 3.549-1.889 7.357-1.866 1.903.012 3.307.389 3.982.569 1.401.376 2.501.96 3.304 1.386 3.664 2.081 6.08 6.194 6.07 11.24-.015 7.954-6.064 15.216-13.497 16.216 7.433-1 13.482-8.262 13.497-16.216.01-5.046-2.406-9.159-6.07-11.24 1.804 1.054 2.787 2.021 2.965 2.205.986 1.011 1.088 1.117 1.592 1.78a14.687 14.687 0 0 1 1.298 2.028c1.054 2.038 1.291 3.25 1.542 4.532.134.682.31 2.56.133 4.02-.108.882-.172 1.414-.46 2.466-.233.847-.233.847-.853 2.323-.337.802-1.16 2.187-2.081 3.282-1.98 2.356-4.563 4.033-7.469 4.849a14.96 14.96 0 0 1-6.687.334c-3.359-.588-5.679-2.246-6.109-2.573-1.151-.872-3.075-2.331-4.682-5.459"/>
        <path id="c" d="M.005 15.485c-.009-.545.022-2.006.495-3.81.487-1.846 1.222-3.168 1.436-3.529a24.86 24.86 0 0 1 1.259-1.882c.247-.335.609-.758.905-1.05 1.172-1.161 1.752-1.731 3.669-2.845.764-.443 3.549-1.889 7.357-1.866 1.903.012 3.307.389 3.982.569 1.401.376 2.501.96 3.304 1.386 3.664 2.081 6.08 6.194 6.07 11.24-.015 7.954-6.064 15.216-13.497 16.216 7.433-1 13.482-8.262 13.497-16.216.01-5.046-2.406-9.159-6.07-11.24 1.804 1.054 2.787 2.021 2.965 2.205.986 1.011 1.088 1.117 1.592 1.78a14.687 14.687 0 0 1 1.298 2.028c1.054 2.038 1.291 3.25 1.542 4.532.134.682.31 2.56.133 4.02-.108.882-.172 1.414-.46 2.466-.233.847-.233.847-.853 2.323-.337.802-1.16 2.187-2.081 3.282-1.98 2.356-4.563 4.033-7.469 4.849a14.96 14.96 0 0 1-6.687.334c-3.359-.588-5.679-2.246-6.109-2.573-1.151-.872-3.075-2.331-4.682-5.459"/>
        <path id="e" d="M.005 15.485c-.009-.545.022-2.006.495-3.81.487-1.846 1.222-3.168 1.436-3.529a24.86 24.86 0 0 1 1.259-1.882c.247-.335.609-.758.905-1.05 1.172-1.161 1.752-1.731 3.669-2.845.764-.443 3.549-1.889 7.357-1.866 1.903.012 3.307.389 3.982.569 1.401.376 2.501.96 3.304 1.386 3.664 2.081 6.08 6.194 6.07 11.24-.015 7.954-6.064 15.216-13.497 16.216 7.433-1 13.482-8.262 13.497-16.216.01-5.046-2.406-9.159-6.07-11.24 1.804 1.054 2.787 2.021 2.965 2.205.986 1.011 1.088 1.117 1.592 1.78a14.687 14.687 0 0 1 1.298 2.028c1.054 2.038 1.291 3.25 1.542 4.532.134.682.31 2.56.133 4.02-.108.882-.172 1.414-.46 2.466-.233.847-.233.847-.853 2.323-.337.802-1.16 2.187-2.081 3.282-1.98 2.356-4.563 4.033-7.469 4.849a14.96 14.96 0 0 1-6.687.334c-3.359-.588-5.679-2.246-6.109-2.573-1.151-.872-3.075-2.331-4.682-5.459"/>
        <path id="g" d="M.005 15.485c-.009-.545.022-2.006.495-3.81.487-1.846 1.222-3.168 1.436-3.529a24.86 24.86 0 0 1 1.259-1.882c.247-.335.609-.758.905-1.05 1.172-1.161 1.752-1.731 3.669-2.845.764-.443 3.549-1.889 7.357-1.866 1.903.012 3.307.389 3.982.569 1.401.376 2.501.96 3.304 1.386 3.664 2.081 6.08 6.194 6.07 11.24-.015 7.954-6.064 15.216-13.497 16.216 7.433-1 13.482-8.262 13.497-16.216.01-5.046-2.406-9.159-6.07-11.24 1.804 1.054 2.787 2.021 2.965 2.205.986 1.011 1.088 1.117 1.592 1.78a14.687 14.687 0 0 1 1.298 2.028c1.054 2.038 1.291 3.25 1.542 4.532.134.682.31 2.56.133 4.02-.108.882-.172 1.414-.46 2.466-.233.847-.233.847-.853 2.323-.337.802-1.16 2.187-2.081 3.282-1.98 2.356-4.563 4.033-7.469 4.849a14.96 14.96 0 0 1-6.687.334c-3.359-.588-5.679-2.246-6.109-2.573-1.151-.872-3.075-2.331-4.682-5.459"/>
        <path id="i" d="M.005 15.485c-.009-.545.022-2.006.495-3.81.487-1.846 1.222-3.168 1.436-3.529a24.86 24.86 0 0 1 1.259-1.882c.247-.335.609-.758.905-1.05 1.172-1.161 1.752-1.731 3.669-2.845.764-.443 3.549-1.889 7.357-1.866 1.903.012 3.307.389 3.982.569 1.401.376 2.501.96 3.304 1.386 3.664 2.081 6.08 6.194 6.07 11.24-.015 7.954-6.064 15.216-13.497 16.216 7.433-1 13.482-8.262 13.497-16.216.01-5.046-2.406-9.159-6.07-11.24 1.804 1.054 2.787 2.021 2.965 2.205.986 1.011 1.088 1.117 1.592 1.78a14.687 14.687 0 0 1 1.298 2.028c1.054 2.038 1.291 3.25 1.542 4.532.134.682.31 2.56.133 4.02-.108.882-.172 1.414-.46 2.466-.233.847-.233.847-.853 2.323-.337.802-1.16 2.187-2.081 3.282-1.98 2.356-4.563 4.033-7.469 4.849a14.96 14.96 0 0 1-6.687.334c-3.359-.588-5.679-2.246-6.109-2.573-1.151-.872-3.075-2.331-4.682-5.459"/>
        <path id="k" d="M.005 15.485c-.009-.545.022-2.006.495-3.81.487-1.846 1.222-3.168 1.436-3.529a24.86 24.86 0 0 1 1.259-1.882c.247-.335.609-.758.905-1.05 1.172-1.161 1.752-1.731 3.669-2.845.764-.443 3.549-1.889 7.357-1.866 1.903.012 3.307.389 3.982.569 1.401.376 2.501.96 3.304 1.386 3.664 2.081 6.08 6.194 6.07 11.24-.015 7.954-6.064 15.216-13.497 16.216 7.433-1 13.482-8.262 13.497-16.216.01-5.046-2.406-9.159-6.07-11.24 1.804 1.054 2.787 2.021 2.965 2.205.986 1.011 1.088 1.117 1.592 1.78a14.687 14.687 0 0 1 1.298 2.028c1.054 2.038 1.291 3.25 1.542 4.532.134.682.31 2.56.133 4.02-.108.882-.172 1.414-.46 2.466-.233.847-.233.847-.853 2.323-.337.802-1.16 2.187-2.081 3.282-1.98 2.356-4.563 4.033-7.469 4.849a14.96 14.96 0 0 1-6.687.334c-3.359-.588-5.679-2.246-6.109-2.573-1.151-.872-3.075-2.331-4.682-5.459"/>
        <path id="m" d="M.005 15.485c-.009-.545.022-2.006.495-3.81.487-1.846 1.222-3.168 1.436-3.529a24.86 24.86 0 0 1 1.259-1.882c.247-.335.609-.758.905-1.05 1.172-1.161 1.752-1.731 3.669-2.845.764-.443 3.549-1.889 7.357-1.866 1.903.012 3.307.389 3.982.569 1.401.376 2.501.96 3.304 1.386 3.664 2.081 6.08 6.194 6.07 11.24-.015 7.954-6.064 15.216-13.497 16.216 7.433-1 13.482-8.262 13.497-16.216.01-5.046-2.406-9.159-6.07-11.24 1.804 1.054 2.787 2.021 2.965 2.205.986 1.011 1.088 1.117 1.592 1.78a14.687 14.687 0 0 1 1.298 2.028c1.054 2.038 1.291 3.25 1.542 4.532.134.682.31 2.56.133 4.02-.108.882-.172 1.414-.46 2.466-.233.847-.233.847-.853 2.323-.337.802-1.16 2.187-2.081 3.282-1.98 2.356-4.563 4.033-7.469 4.849a14.96 14.96 0 0 1-6.687.334c-3.359-.588-5.679-2.246-6.109-2.573-1.151-.872-3.075-2.331-4.682-5.459"/>
        <path id="o" d="M.005 15.485c-.009-.545.022-2.006.495-3.81.487-1.846 1.222-3.168 1.436-3.529a24.86 24.86 0 0 1 1.259-1.882c.247-.335.609-.758.905-1.05 1.172-1.161 1.752-1.731 3.669-2.845.764-.443 3.549-1.889 7.357-1.866 1.903.012 3.307.389 3.982.569 1.401.376 2.501.96 3.304 1.386 3.664 2.081 6.08 6.194 6.07 11.24-.015 7.954-6.064 15.216-13.497 16.216 7.433-1 13.482-8.262 13.497-16.216.01-5.046-2.406-9.159-6.07-11.24 1.804 1.054 2.787 2.021 2.965 2.205.986 1.011 1.088 1.117 1.592 1.78a14.687 14.687 0 0 1 1.298 2.028c1.054 2.038 1.291 3.25 1.542 4.532.134.682.31 2.56.133 4.02-.108.882-.172 1.414-.46 2.466-.233.847-.233.847-.853 2.323-.337.802-1.16 2.187-2.081 3.282-1.98 2.356-4.563 4.033-7.469 4.849a14.96 14.96 0 0 1-6.687.334c-3.359-.588-5.679-2.246-6.109-2.573-1.151-.872-3.075-2.331-4.682-5.459"/>
        <path id="q" d="M.005 15.485c-.009-.545.022-2.006.495-3.81.487-1.846 1.222-3.168 1.436-3.529a24.86 24.86 0 0 1 1.259-1.882c.247-.335.609-.758.905-1.05 1.172-1.161 1.752-1.731 3.669-2.845.764-.443 3.549-1.889 7.357-1.866 1.903.012 3.307.389 3.982.569 1.401.376 2.501.96 3.304 1.386 3.664 2.081 6.08 6.194 6.07 11.24-.015 7.954-6.064 15.216-13.497 16.216 7.433-1 13.482-8.262 13.497-16.216.01-5.046-2.406-9.159-6.07-11.24 1.804 1.054 2.787 2.021 2.965 2.205.986 1.011 1.088 1.117 1.592 1.78a14.687 14.687 0 0 1 1.298 2.028c1.054 2.038 1.291 3.25 1.542 4.532.134.682.31 2.56.133 4.02-.108.882-.172 1.414-.46 2.466-.233.847-.233.847-.853 2.323-.337.802-1.16 2.187-2.081 3.282-1.98 2.356-4.563 4.033-7.469 4.849a14.96 14.96 0 0 1-6.687.334c-3.359-.588-5.679-2.246-6.109-2.573-1.151-.872-3.075-2.331-4.682-5.459"/>
        <path id="s" d="M.005 15.485c-.009-.545.022-2.006.495-3.81.487-1.846 1.222-3.168 1.436-3.529a24.86 24.86 0 0 1 1.259-1.882c.247-.335.609-.758.905-1.05 1.172-1.161 1.752-1.731 3.669-2.845.764-.443 3.549-1.889 7.357-1.866 1.903.012 3.307.389 3.982.569 1.401.376 2.501.96 3.304 1.386 3.664 2.081 6.08 6.194 6.07 11.24-.015 7.954-6.064 15.216-13.497 16.216 7.433-1 13.482-8.262 13.497-16.216.01-5.046-2.406-9.159-6.07-11.24 1.804 1.054 2.787 2.021 2.965 2.205.986 1.011 1.088 1.117 1.592 1.78a14.687 14.687 0 0 1 1.298 2.028c1.054 2.038 1.291 3.25 1.542 4.532.134.682.31 2.56.133 4.02-.108.882-.172 1.414-.46 2.466-.233.847-.233.847-.853 2.323-.337.802-1.16 2.187-2.081 3.282-1.98 2.356-4.563 4.033-7.469 4.849a14.96 14.96 0 0 1-6.687.334c-3.359-.588-5.679-2.246-6.109-2.573-1.151-.872-3.075-2.331-4.682-5.459"/>
        <path id="u" d="M.005 15.485c-.009-.545.022-2.006.495-3.81.487-1.846 1.222-3.168 1.436-3.529a24.86 24.86 0 0 1 1.259-1.882c.247-.335.609-.758.905-1.05 1.172-1.161 1.752-1.731 3.669-2.845.764-.443 3.549-1.889 7.357-1.866 1.903.012 3.307.389 3.982.569 1.401.376 2.501.96 3.304 1.386 3.664 2.081 6.08 6.194 6.07 11.24-.015 7.954-6.064 15.216-13.497 16.216 7.433-1 13.482-8.262 13.497-16.216.01-5.046-2.406-9.159-6.07-11.24 1.804 1.054 2.787 2.021 2.965 2.205.986 1.011 1.088 1.117 1.592 1.78a14.687 14.687 0 0 1 1.298 2.028c1.054 2.038 1.291 3.25 1.542 4.532.134.682.31 2.56.133 4.02-.108.882-.172 1.414-.46 2.466-.233.847-.233.847-.853 2.323-.337.802-1.16 2.187-2.081 3.282-1.98 2.356-4.563 4.033-7.469 4.849a14.96 14.96 0 0 1-6.687.334c-3.359-.588-5.679-2.246-6.109-2.573-1.151-.872-3.075-2.331-4.682-5.459"/>
        <path id="w" d="M.005 15.485c-.009-.545.022-2.006.495-3.81.487-1.846 1.222-3.168 1.436-3.529a24.86 24.86 0 0 1 1.259-1.882c.247-.335.609-.758.905-1.05 1.172-1.161 1.752-1.731 3.669-2.845.764-.443 3.549-1.889 7.357-1.866 1.903.012 3.307.389 3.982.569 1.401.376 2.501.96 3.304 1.386 3.664 2.081 6.08 6.194 6.07 11.24-.015 7.954-6.064 15.216-13.497 16.216 7.433-1 13.482-8.262 13.497-16.216.01-5.046-2.406-9.159-6.07-11.24 1.804 1.054 2.787 2.021 2.965 2.205.986 1.011 1.088 1.117 1.592 1.78a14.687 14.687 0 0 1 1.298 2.028c1.054 2.038 1.291 3.25 1.542 4.532.134.682.31 2.56.133 4.02-.108.882-.172 1.414-.46 2.466-.233.847-.233.847-.853 2.323-.337.802-1.16 2.187-2.081 3.282-1.98 2.356-4.563 4.033-7.469 4.849a14.96 14.96 0 0 1-6.687.334c-3.359-.588-5.679-2.246-6.109-2.573-1.151-.872-3.075-2.331-4.682-5.459"/>
        <path id="y" d="M.005 15.485c-.009-.545.022-2.006.495-3.81.487-1.846 1.222-3.168 1.436-3.529a24.86 24.86 0 0 1 1.259-1.882c.247-.335.609-.758.905-1.05 1.172-1.161 1.752-1.731 3.669-2.845.764-.443 3.549-1.889 7.357-1.866 1.903.012 3.307.389 3.982.569 1.401.376 2.501.96 3.304 1.386 3.664 2.081 6.08 6.194 6.07 11.24-.015 7.954-6.064 15.216-13.497 16.216 7.433-1 13.482-8.262 13.497-16.216.01-5.046-2.406-9.159-6.07-11.24 1.804 1.054 2.787 2.021 2.965 2.205.986 1.011 1.088 1.117 1.592 1.78a14.687 14.687 0 0 1 1.298 2.028c1.054 2.038 1.291 3.25 1.542 4.532.134.682.31 2.56.133 4.02-.108.882-.172 1.414-.46 2.466-.233.847-.233.847-.853 2.323-.337.802-1.16 2.187-2.081 3.282-1.98 2.356-4.563 4.033-7.469 4.849a14.96 14.96 0 0 1-6.687.334c-3.359-.588-5.679-2.246-6.109-2.573-1.151-.872-3.075-2.331-4.682-5.459"/>
        <path id="A" d="M.005 15.485c-.009-.545.022-2.006.495-3.81.487-1.846 1.222-3.168 1.436-3.529a24.86 24.86 0 0 1 1.259-1.882c.247-.335.609-.758.905-1.05 1.172-1.161 1.752-1.731 3.669-2.845.764-.443 3.549-1.889 7.357-1.866 1.903.012 3.307.389 3.982.569 1.401.376 2.501.96 3.304 1.386 3.664 2.081 6.08 6.194 6.07 11.24-.015 7.954-6.064 15.216-13.497 16.216 7.433-1 13.482-8.262 13.497-16.216.01-5.046-2.406-9.159-6.07-11.24 1.804 1.054 2.787 2.021 2.965 2.205.986 1.011 1.088 1.117 1.592 1.78a14.687 14.687 0 0 1 1.298 2.028c1.054 2.038 1.291 3.25 1.542 4.532.134.682.31 2.56.133 4.02-.108.882-.172 1.414-.46 2.466-.233.847-.233.847-.853 2.323-.337.802-1.16 2.187-2.081 3.282-1.98 2.356-4.563 4.033-7.469 4.849a14.96 14.96 0 0 1-6.687.334c-3.359-.588-5.679-2.246-6.109-2.573-1.151-.872-3.075-2.331-4.682-5.459"/>
        <path id="C" d="M.005 15.485c-.009-.545.022-2.006.495-3.81.487-1.846 1.222-3.168 1.436-3.529a24.86 24.86 0 0 1 1.259-1.882c.247-.335.609-.758.905-1.05 1.172-1.161 1.752-1.731 3.669-2.845.764-.443 3.549-1.889 7.357-1.866 1.903.012 3.307.389 3.982.569 1.401.376 2.501.96 3.304 1.386 3.664 2.081 6.08 6.194 6.07 11.24-.015 7.954-6.064 15.216-13.497 16.216 7.433-1 13.482-8.262 13.497-16.216.01-5.046-2.406-9.159-6.07-11.24 1.804 1.054 2.787 2.021 2.965 2.205.986 1.011 1.088 1.117 1.592 1.78a14.687 14.687 0 0 1 1.298 2.028c1.054 2.038 1.291 3.25 1.542 4.532.134.682.31 2.56.133 4.02-.108.882-.172 1.414-.46 2.466-.233.847-.233.847-.853 2.323-.337.802-1.16 2.187-2.081 3.282-1.98 2.356-4.563 4.033-7.469 4.849a14.96 14.96 0 0 1-6.687.334c-3.359-.588-5.679-2.246-6.109-2.573-1.151-.872-3.075-2.331-4.682-5.459"/>
        <path id="E" d="M.005 15.485c-.009-.545.022-2.006.495-3.81.487-1.846 1.222-3.168 1.436-3.529a24.86 24.86 0 0 1 1.259-1.882c.247-.335.609-.758.905-1.05 1.172-1.161 1.752-1.731 3.669-2.845.764-.443 3.549-1.889 7.357-1.866 1.903.012 3.307.389 3.982.569 1.401.376 2.501.96 3.304 1.386 3.664 2.081 6.08 6.194 6.07 11.24-.015 7.954-6.064 15.216-13.497 16.216 7.433-1 13.482-8.262 13.497-16.216.01-5.046-2.406-9.159-6.07-11.24 1.804 1.054 2.787 2.021 2.965 2.205.986 1.011 1.088 1.117 1.592 1.78a14.687 14.687 0 0 1 1.298 2.028c1.054 2.038 1.291 3.25 1.542 4.532.134.682.31 2.56.133 4.02-.108.882-.172 1.414-.46 2.466-.233.847-.233.847-.853 2.323-.337.802-1.16 2.187-2.081 3.282-1.98 2.356-4.563 4.033-7.469 4.849a14.96 14.96 0 0 1-6.687.334c-3.359-.588-5.679-2.246-6.109-2.573-1.151-.872-3.075-2.331-4.682-5.459"/>
        <path id="G" d="M.005 15.485c-.009-.545.022-2.006.495-3.81.487-1.846 1.222-3.168 1.436-3.529a24.86 24.86 0 0 1 1.259-1.882c.247-.335.609-.758.905-1.05 1.172-1.161 1.752-1.731 3.669-2.845.764-.443 3.549-1.889 7.357-1.866 1.903.012 3.307.389 3.982.569 1.401.376 2.501.96 3.304 1.386 3.664 2.081 6.08 6.194 6.07 11.24-.015 7.954-6.064 15.216-13.497 16.216 7.433-1 13.482-8.262 13.497-16.216.01-5.046-2.406-9.159-6.07-11.24 1.804 1.054 2.787 2.021 2.965 2.205.986 1.011 1.088 1.117 1.592 1.78a14.687 14.687 0 0 1 1.298 2.028c1.054 2.038 1.291 3.25 1.542 4.532.134.682.31 2.56.133 4.02-.108.882-.172 1.414-.46 2.466-.233.847-.233.847-.853 2.323-.337.802-1.16 2.187-2.081 3.282-1.98 2.356-4.563 4.033-7.469 4.849a14.96 14.96 0 0 1-6.687.334c-3.359-.588-5.679-2.246-6.109-2.573-1.151-.872-3.075-2.331-4.682-5.459"/>
        <path id="I" d="M.005 15.485c-.009-.545.022-2.006.495-3.81.487-1.846 1.222-3.168 1.436-3.529a24.86 24.86 0 0 1 1.259-1.882c.247-.335.609-.758.905-1.05 1.172-1.161 1.752-1.731 3.669-2.845.764-.443 3.549-1.889 7.357-1.866 1.903.012 3.307.389 3.982.569 1.401.376 2.501.96 3.304 1.386 3.664 2.081 6.08 6.194 6.07 11.24-.015 7.954-6.064 15.216-13.497 16.216 7.433-1 13.482-8.262 13.497-16.216.01-5.046-2.406-9.159-6.07-11.24 1.804 1.054 2.787 2.021 2.965 2.205.986 1.011 1.088 1.117 1.592 1.78a14.687 14.687 0 0 1 1.298 2.028c1.054 2.038 1.291 3.25 1.542 4.532.134.682.31 2.56.133 4.02-.108.882-.172 1.414-.46 2.466-.233.847-.233.847-.853 2.323-.337.802-1.16 2.187-2.081 3.282-1.98 2.356-4.563 4.033-7.469 4.849a14.96 14.96 0 0 1-6.687.334c-3.359-.588-5.679-2.246-6.109-2.573-1.151-.872-3.075-2.331-4.682-5.459"/>
        <path id="K" d="M.005 15.485c-.009-.545.022-2.006.495-3.81.487-1.846 1.222-3.168 1.436-3.529a24.86 24.86 0 0 1 1.259-1.882c.247-.335.609-.758.905-1.05 1.172-1.161 1.752-1.731 3.669-2.845.764-.443 3.549-1.889 7.357-1.866 1.903.012 3.307.389 3.982.569 1.401.376 2.501.96 3.304 1.386 3.664 2.081 6.08 6.194 6.07 11.24-.015 7.954-6.064 15.216-13.497 16.216 7.433-1 13.482-8.262 13.497-16.216.01-5.046-2.406-9.159-6.07-11.24 1.804 1.054 2.787 2.021 2.965 2.205.986 1.011 1.088 1.117 1.592 1.78a14.687 14.687 0 0 1 1.298 2.028c1.054 2.038 1.291 3.25 1.542 4.532.134.682.31 2.56.133 4.02-.108.882-.172 1.414-.46 2.466-.233.847-.233.847-.853 2.323-.337.802-1.16 2.187-2.081 3.282-1.98 2.356-4.563 4.033-7.469 4.849a14.96 14.96 0 0 1-6.687.334c-3.359-.588-5.679-2.246-6.109-2.573-1.151-.872-3.075-2.331-4.682-5.459"/>
        <path id="M" d="M.005 15.485c-.009-.545.022-2.006.495-3.81.487-1.846 1.222-3.168 1.436-3.529a24.86 24.86 0 0 1 1.259-1.882c.247-.335.609-.758.905-1.05 1.172-1.161 1.752-1.731 3.669-2.845.764-.443 3.549-1.889 7.357-1.866 1.903.012 3.307.389 3.982.569 1.401.376 2.501.96 3.304 1.386 3.664 2.081 6.08 6.194 6.07 11.24-.015 7.954-6.064 15.216-13.497 16.216 7.433-1 13.482-8.262 13.497-16.216.01-5.046-2.406-9.159-6.07-11.24 1.804 1.054 2.787 2.021 2.965 2.205.986 1.011 1.088 1.117 1.592 1.78a14.687 14.687 0 0 1 1.298 2.028c1.054 2.038 1.291 3.25 1.542 4.532.134.682.31 2.56.133 4.02-.108.882-.172 1.414-.46 2.466-.233.847-.233.847-.853 2.323-.337.802-1.16 2.187-2.081 3.282-1.98 2.356-4.563 4.033-7.469 4.849a14.96 14.96 0 0 1-6.687.334c-3.359-.588-5.679-2.246-6.109-2.573-1.151-.872-3.075-2.331-4.682-5.459"/>
        <path id="O" d="M.005 15.485c-.009-.545.022-2.006.495-3.81.487-1.846 1.222-3.168 1.436-3.529a24.86 24.86 0 0 1 1.259-1.882c.247-.335.609-.758.905-1.05 1.172-1.161 1.752-1.731 3.669-2.845.764-.443 3.549-1.889 7.357-1.866 1.903.012 3.307.389 3.982.569 1.401.376 2.501.96 3.304 1.386 3.664 2.081 6.08 6.194 6.07 11.24-.015 7.954-6.064 15.216-13.497 16.216 7.433-1 13.482-8.262 13.497-16.216.01-5.046-2.406-9.159-6.07-11.24 1.804 1.054 2.787 2.021 2.965 2.205.986 1.011 1.088 1.117 1.592 1.78a14.687 14.687 0 0 1 1.298 2.028c1.054 2.038 1.291 3.25 1.542 4.532.134.682.31 2.56.133 4.02-.108.882-.172 1.414-.46 2.466-.233.847-.233.847-.853 2.323-.337.802-1.16 2.187-2.081 3.282-1.98 2.356-4.563 4.033-7.469 4.849a14.96 14.96 0 0 1-6.687.334c-3.359-.588-5.679-2.246-6.109-2.573-1.151-.872-3.075-2.331-4.682-5.459"/>
        <path id="Q" d="M.005 15.485c-.009-.545.022-2.006.495-3.81.487-1.846 1.222-3.168 1.436-3.529a24.86 24.86 0 0 1 1.259-1.882c.247-.335.609-.758.905-1.05 1.172-1.161 1.752-1.731 3.669-2.845.764-.443 3.549-1.889 7.357-1.866 1.903.012 3.307.389 3.982.569 1.401.376 2.501.96 3.304 1.386 3.664 2.081 6.08 6.194 6.07 11.24-.015 7.954-6.064 15.216-13.497 16.216 7.433-1 13.482-8.262 13.497-16.216.01-5.046-2.406-9.159-6.07-11.24 1.804 1.054 2.787 2.021 2.965 2.205.986 1.011 1.088 1.117 1.592 1.78a14.687 14.687 0 0 1 1.298 2.028c1.054 2.038 1.291 3.25 1.542 4.532.134.682.31 2.56.133 4.02-.108.882-.172 1.414-.46 2.466-.233.847-.233.847-.853 2.323-.337.802-1.16 2.187-2.081 3.282-1.98 2.356-4.563 4.033-7.469 4.849a14.96 14.96 0 0 1-6.687.334c-3.359-.588-5.679-2.246-6.109-2.573-1.151-.872-3.075-2.331-4.682-5.459"/>
        <path id="S" d="M.005 15.485c-.009-.545.022-2.006.495-3.81.487-1.846 1.222-3.168 1.436-3.529a24.86 24.86 0 0 1 1.259-1.882c.247-.335.609-.758.905-1.05 1.172-1.161 1.752-1.731 3.669-2.845.764-.443 3.549-1.889 7.357-1.866 1.903.012 3.307.389 3.982.569 1.401.376 2.501.96 3.304 1.386 3.664 2.081 6.08 6.194 6.07 11.24-.015 7.954-6.064 15.216-13.497 16.216 7.433-1 13.482-8.262 13.497-16.216.01-5.046-2.406-9.159-6.07-11.24 1.804 1.054 2.787 2.021 2.965 2.205.986 1.011 1.088 1.117 1.592 1.78a14.687 14.687 0 0 1 1.298 2.028c1.054 2.038 1.291 3.25 1.542 4.532.134.682.31 2.56.133 4.02-.108.882-.172 1.414-.46 2.466-.233.847-.233.847-.853 2.323-.337.802-1.16 2.187-2.081 3.282-1.98 2.356-4.563 4.033-7.469 4.849a14.96 14.96 0 0 1-6.687.334c-3.359-.588-5.679-2.246-6.109-2.573-1.151-.872-3.075-2.331-4.682-5.459"/>
        <path id="U" d="M.005 15.485c-.009-.545.022-2.006.495-3.81.487-1.846 1.222-3.168 1.436-3.529a24.86 24.86 0 0 1 1.259-1.882c.247-.335.609-.758.905-1.05 1.172-1.161 1.752-1.731 3.669-2.845.764-.443 3.549-1.889 7.357-1.866 1.903.012 3.307.389 3.982.569 1.401.376 2.501.96 3.304 1.386 3.664 2.081 6.08 6.194 6.07 11.24-.015 7.954-6.064 15.216-13.497 16.216 7.433-1 13.482-8.262 13.497-16.216.01-5.046-2.406-9.159-6.07-11.24 1.804 1.054 2.787 2.021 2.965 2.205.986 1.011 1.088 1.117 1.592 1.78a14.687 14.687 0 0 1 1.298 2.028c1.054 2.038 1.291 3.25 1.542 4.532.134.682.31 2.56.133 4.02-.108.882-.172 1.414-.46 2.466-.233.847-.233.847-.853 2.323-.337.802-1.16 2.187-2.081 3.282-1.98 2.356-4.563 4.033-7.469 4.849a14.96 14.96 0 0 1-6.687.334c-3.359-.588-5.679-2.246-6.109-2.573-1.151-.872-3.075-2.331-4.682-5.459"/>
        <path id="W" d="M.005 15.485c-.009-.545.022-2.006.495-3.81.487-1.846 1.222-3.168 1.436-3.529a24.86 24.86 0 0 1 1.259-1.882c.247-.335.609-.758.905-1.05 1.172-1.161 1.752-1.731 3.669-2.845.764-.443 3.549-1.889 7.357-1.866 1.903.012 3.307.389 3.982.569 1.401.376 2.501.96 3.304 1.386 3.664 2.081 6.08 6.194 6.07 11.24-.015 7.954-6.064 15.216-13.497 16.216 7.433-1 13.482-8.262 13.497-16.216.01-5.046-2.406-9.159-6.07-11.24 1.804 1.054 2.787 2.021 2.965 2.205.986 1.011 1.088 1.117 1.592 1.78a14.687 14.687 0 0 1 1.298 2.028c1.054 2.038 1.291 3.25 1.542 4.532.134.682.31 2.56.133 4.02-.108.882-.172 1.414-.46 2.466-.233.847-.233.847-.853 2.323-.337.802-1.16 2.187-2.081 3.282-1.98 2.356-4.563 4.033-7.469 4.849a14.96 14.96 0 0 1-6.687.334c-3.359-.588-5.679-2.246-6.109-2.573-1.151-.872-3.075-2.331-4.682-5.459"/>
        <path id="Y" d="M.005 15.485c-.009-.545.022-2.006.495-3.81.487-1.846 1.222-3.168 1.436-3.529a24.86 24.86 0 0 1 1.259-1.882c.247-.335.609-.758.905-1.05 1.172-1.161 1.752-1.731 3.669-2.845.764-.443 3.549-1.889 7.357-1.866 1.903.012 3.307.389 3.982.569 1.401.376 2.501.96 3.304 1.386 3.664 2.081 6.08 6.194 6.07 11.24-.015 7.954-6.064 15.216-13.497 16.216 7.433-1 13.482-8.262 13.497-16.216.01-5.046-2.406-9.159-6.07-11.24 1.804 1.054 2.787 2.021 2.965 2.205.986 1.011 1.088 1.117 1.592 1.78a14.687 14.687 0 0 1 1.298 2.028c1.054 2.038 1.291 3.25 1.542 4.532.134.682.31 2.56.133 4.02-.108.882-.172 1.414-.46 2.466-.233.847-.233.847-.853 2.323-.337.802-1.16 2.187-2.081 3.282-1.98 2.356-4.563 4.033-7.469 4.849a14.96 14.96 0 0 1-6.687.334c-3.359-.588-5.679-2.246-6.109-2.573-1.151-.872-3.075-2.331-4.682-5.459"/>
        <path id="aa" d="M.005 15.485c-.009-.545.022-2.006.495-3.81.487-1.846 1.222-3.168 1.436-3.529a24.86 24.86 0 0 1 1.259-1.882c.247-.335.609-.758.905-1.05 1.172-1.161 1.752-1.731 3.669-2.845.764-.443 3.549-1.889 7.357-1.866 1.903.012 3.307.389 3.982.569 1.401.376 2.501.96 3.304 1.386 3.664 2.081 6.08 6.194 6.07 11.24-.015 7.954-6.064 15.216-13.497 16.216 7.433-1 13.482-8.262 13.497-16.216.01-5.046-2.406-9.159-6.07-11.24 1.804 1.054 2.787 2.021 2.965 2.205.986 1.011 1.088 1.117 1.592 1.78a14.687 14.687 0 0 1 1.298 2.028c1.054 2.038 1.291 3.25 1.542 4.532.134.682.31 2.56.133 4.02-.108.882-.172 1.414-.46 2.466-.233.847-.233.847-.853 2.323-.337.802-1.16 2.187-2.081 3.282-1.98 2.356-4.563 4.033-7.469 4.849a14.96 14.96 0 0 1-6.687.334c-3.359-.588-5.679-2.246-6.109-2.573-1.151-.872-3.075-2.331-4.682-5.459"/>
        <path id="ac" d="M.005 15.485c-.009-.545.022-2.006.495-3.81.487-1.846 1.222-3.168 1.436-3.529a24.86 24.86 0 0 1 1.259-1.882c.247-.335.609-.758.905-1.05 1.172-1.161 1.752-1.731 3.669-2.845.764-.443 3.549-1.889 7.357-1.866 1.903.012 3.307.389 3.982.569 1.401.376 2.501.96 3.304 1.386 3.664 2.081 6.08 6.194 6.07 11.24-.015 7.954-6.064 15.216-13.497 16.216 7.433-1 13.482-8.262 13.497-16.216.01-5.046-2.406-9.159-6.07-11.24 1.804 1.054 2.787 2.021 2.965 2.205.986 1.011 1.088 1.117 1.592 1.78a14.687 14.687 0 0 1 1.298 2.028c1.054 2.038 1.291 3.25 1.542 4.532.134.682.31 2.56.133 4.02-.108.882-.172 1.414-.46 2.466-.233.847-.233.847-.853 2.323-.337.802-1.16 2.187-2.081 3.282-1.98 2.356-4.563 4.033-7.469 4.849a14.96 14.96 0 0 1-6.687.334c-3.359-.588-5.679-2.246-6.109-2.573-1.151-.872-3.075-2.331-4.682-5.459"/>
        <path id="ae" d="M.005 15.485c-.009-.545.022-2.006.495-3.81.487-1.846 1.222-3.168 1.436-3.529a24.86 24.86 0 0 1 1.259-1.882c.247-.335.609-.758.905-1.05 1.172-1.161 1.752-1.731 3.669-2.845.764-.443 3.549-1.889 7.357-1.866 1.903.012 3.307.389 3.982.569 1.401.376 2.501.96 3.304 1.386 3.664 2.081 6.08 6.194 6.07 11.24-.015 7.954-6.064 15.216-13.497 16.216 7.433-1 13.482-8.262 13.497-16.216.01-5.046-2.406-9.159-6.07-11.24 1.804 1.054 2.787 2.021 2.965 2.205.986 1.011 1.088 1.117 1.592 1.78a14.687 14.687 0 0 1 1.298 2.028c1.054 2.038 1.291 3.25 1.542 4.532.134.682.31 2.56.133 4.02-.108.882-.172 1.414-.46 2.466-.233.847-.233.847-.853 2.323-.337.802-1.16 2.187-2.081 3.282-1.98 2.356-4.563 4.033-7.469 4.849a14.96 14.96 0 0 1-6.687.334c-3.359-.588-5.679-2.246-6.109-2.573-1.151-.872-3.075-2.331-4.682-5.459"/>
        <path id="ag" d="M.005 15.485c-.009-.545.022-2.006.495-3.81.487-1.846 1.222-3.168 1.436-3.529a24.86 24.86 0 0 1 1.259-1.882c.247-.335.609-.758.905-1.05 1.172-1.161 1.752-1.731 3.669-2.845.764-.443 3.549-1.889 7.357-1.866 1.903.012 3.307.389 3.982.569 1.401.376 2.501.96 3.304 1.386 3.664 2.081 6.08 6.194 6.07 11.24-.015 7.954-6.064 15.216-13.497 16.216 7.433-1 13.482-8.262 13.497-16.216.01-5.046-2.406-9.159-6.07-11.24 1.804 1.054 2.787 2.021 2.965 2.205.986 1.011 1.088 1.117 1.592 1.78a14.687 14.687 0 0 1 1.298 2.028c1.054 2.038 1.291 3.25 1.542 4.532.134.682.31 2.56.133 4.02-.108.882-.172 1.414-.46 2.466-.233.847-.233.847-.853 2.323-.337.802-1.16 2.187-2.081 3.282-1.98 2.356-4.563 4.033-7.469 4.849a14.96 14.96 0 0 1-6.687.334c-3.359-.588-5.679-2.246-6.109-2.573-1.151-.872-3.075-2.331-4.682-5.459"/>
        <path id="ai" d="M.005 15.485c-.009-.545.022-2.006.495-3.81.487-1.846 1.222-3.168 1.436-3.529a24.86 24.86 0 0 1 1.259-1.882c.247-.335.609-.758.905-1.05 1.172-1.161 1.752-1.731 3.669-2.845.764-.443 3.549-1.889 7.357-1.866 1.903.012 3.307.389 3.982.569 1.401.376 2.501.96 3.304 1.386 3.664 2.081 6.08 6.194 6.07 11.24-.015 7.954-6.064 15.216-13.497 16.216 7.433-1 13.482-8.262 13.497-16.216.01-5.046-2.406-9.159-6.07-11.24 1.804 1.054 2.787 2.021 2.965 2.205.986 1.011 1.088 1.117 1.592 1.78a14.687 14.687 0 0 1 1.298 2.028c1.054 2.038 1.291 3.25 1.542 4.532.134.682.31 2.56.133 4.02-.108.882-.172 1.414-.46 2.466-.233.847-.233.847-.853 2.323-.337.802-1.16 2.187-2.081 3.282-1.98 2.356-4.563 4.033-7.469 4.849a14.96 14.96 0 0 1-6.687.334c-3.359-.588-5.679-2.246-6.109-2.573-1.151-.872-3.075-2.331-4.682-5.459"/>
        <path id="ak" d="M15.095.502c.576.003 1.152.04 1.727.11 2.865.351 4.774 1.399 5.59 1.846-2.117-1.203-4.651-1.728-7.374-1.361 2.723-.367 5.257.158 7.374 1.361.522.32 1.221.747 1.702 1.126.436.344 1.168.92 1.859 1.68 1.597 1.757 2.144 2.869 2.744 4.127.648 1.354 1.032 3.146 1.092 3.612.195 1.518.207 1.608.209 2.531.001.73-.095 1.701-.2 2.423-.147.999-.609 2.666-1.13 3.728-.585 1.19-.66 1.343-1.178 2.121a14.593 14.593 0 0 1-1.496 1.895c-2.123 2.256-4.697 3.744-7.652 4.426-5.194 1.196-9.25-.702-10.753-1.574-1.936-1.124-2.882-2.109-3.718-2.977-.441-.459-1.317-1.486-2.226-3.204C-.423 18.419.036 14.428.057 14.26c.048-.393.084-.92.166-1.307.268-1.26.379-1.781.623-2.403.512-1.305.577-1.472.999-2.241a15.098 15.098 0 0 1 1.35-2.045c.582-.703 1.664-2.011 3.296-3.103.709-.473 2.184-1.461 4.486-2.102a14.999 14.999 0 0 1 3.958-.557h.16"/>
        <path id="am" d="M15.095.502c.576.003 1.152.04 1.727.11 2.865.351 4.774 1.399 5.59 1.846-2.117-1.203-4.651-1.728-7.374-1.361 2.723-.367 5.257.158 7.374 1.361.522.32 1.221.747 1.702 1.126.436.344 1.168.92 1.859 1.68 1.597 1.757 2.144 2.869 2.744 4.127.648 1.354 1.032 3.146 1.092 3.612.195 1.518.207 1.608.209 2.531.001.73-.095 1.701-.2 2.423-.147.999-.609 2.666-1.13 3.728-.585 1.19-.66 1.343-1.178 2.121a14.593 14.593 0 0 1-1.496 1.895c-2.123 2.256-4.697 3.744-7.652 4.426-5.194 1.196-9.25-.702-10.753-1.574-1.936-1.124-2.882-2.109-3.718-2.977-.441-.459-1.317-1.486-2.226-3.204C-.423 18.419.036 14.428.057 14.26c.048-.393.084-.92.166-1.307.268-1.26.379-1.781.623-2.403.512-1.305.577-1.472.999-2.241a15.098 15.098 0 0 1 1.35-2.045c.582-.703 1.664-2.011 3.296-3.103.709-.473 2.184-1.461 4.486-2.102a14.999 14.999 0 0 1 3.958-.557h.16"/>
        <path id="ao" d="M15.095.502c.576.003 1.152.04 1.727.11 2.865.351 4.774 1.399 5.59 1.846-2.117-1.203-4.651-1.728-7.374-1.361 2.723-.367 5.257.158 7.374 1.361.522.32 1.221.747 1.702 1.126.436.344 1.168.92 1.859 1.68 1.597 1.757 2.144 2.869 2.744 4.127.648 1.354 1.032 3.146 1.092 3.612.195 1.518.207 1.608.209 2.531.001.73-.095 1.701-.2 2.423-.147.999-.609 2.666-1.13 3.728-.585 1.19-.66 1.343-1.178 2.121a14.593 14.593 0 0 1-1.496 1.895c-2.123 2.256-4.697 3.744-7.652 4.426-5.194 1.196-9.25-.702-10.753-1.574-1.936-1.124-2.882-2.109-3.718-2.977-.441-.459-1.317-1.486-2.226-3.204C-.423 18.419.036 14.428.057 14.26c.048-.393.084-.92.166-1.307.268-1.26.379-1.781.623-2.403.512-1.305.577-1.472.999-2.241a15.098 15.098 0 0 1 1.35-2.045c.582-.703 1.664-2.011 3.296-3.103.709-.473 2.184-1.461 4.486-2.102a14.999 14.999 0 0 1 3.958-.557h.16"/>
        <path id="aq" d="M15.095.502c.576.003 1.152.04 1.727.11 2.865.351 4.774 1.399 5.59 1.846-2.117-1.203-4.651-1.728-7.374-1.361 2.723-.367 5.257.158 7.374 1.361.522.32 1.221.747 1.702 1.126.436.344 1.168.92 1.859 1.68 1.597 1.757 2.144 2.869 2.744 4.127.648 1.354 1.032 3.146 1.092 3.612.195 1.518.207 1.608.209 2.531.001.73-.095 1.701-.2 2.423-.147.999-.609 2.666-1.13 3.728-.585 1.19-.66 1.343-1.178 2.121a14.593 14.593 0 0 1-1.496 1.895c-2.123 2.256-4.697 3.744-7.652 4.426-5.194 1.196-9.25-.702-10.753-1.574-1.936-1.124-2.882-2.109-3.718-2.977-.441-.459-1.317-1.486-2.226-3.204C-.423 18.419.036 14.428.057 14.26c.048-.393.084-.92.166-1.307.268-1.26.379-1.781.623-2.403.512-1.305.577-1.472.999-2.241a15.098 15.098 0 0 1 1.35-2.045c.582-.703 1.664-2.011 3.296-3.103.709-.473 2.184-1.461 4.486-2.102a14.999 14.999 0 0 1 3.958-.557h.16"/>
        <path id="as" d="M15.095.502c.576.003 1.152.04 1.727.11 2.865.351 4.774 1.399 5.59 1.846-2.117-1.203-4.651-1.728-7.374-1.361 2.723-.367 5.257.158 7.374 1.361.522.32 1.221.747 1.702 1.126.436.344 1.168.92 1.859 1.68 1.597 1.757 2.144 2.869 2.744 4.127.648 1.354 1.032 3.146 1.092 3.612.195 1.518.207 1.608.209 2.531.001.73-.095 1.701-.2 2.423-.147.999-.609 2.666-1.13 3.728-.585 1.19-.66 1.343-1.178 2.121a14.593 14.593 0 0 1-1.496 1.895c-2.123 2.256-4.697 3.744-7.652 4.426-5.194 1.196-9.25-.702-10.753-1.574-1.936-1.124-2.882-2.109-3.718-2.977-.441-.459-1.317-1.486-2.226-3.204C-.423 18.419.036 14.428.057 14.26c.048-.393.084-.92.166-1.307.268-1.26.379-1.781.623-2.403.512-1.305.577-1.472.999-2.241a15.098 15.098 0 0 1 1.35-2.045c.582-.703 1.664-2.011 3.296-3.103.709-.473 2.184-1.461 4.486-2.102a14.999 14.999 0 0 1 3.958-.557h.16"/>
        <path id="au" d="M15.095.502c.576.003 1.152.04 1.727.11 2.865.351 4.774 1.399 5.59 1.846-2.117-1.203-4.651-1.728-7.374-1.361 2.723-.367 5.257.158 7.374 1.361.522.32 1.221.747 1.702 1.126.436.344 1.168.92 1.859 1.68 1.597 1.757 2.144 2.869 2.744 4.127.648 1.354 1.032 3.146 1.092 3.612.195 1.518.207 1.608.209 2.531.001.73-.095 1.701-.2 2.423-.147.999-.609 2.666-1.13 3.728-.585 1.19-.66 1.343-1.178 2.121a14.593 14.593 0 0 1-1.496 1.895c-2.123 2.256-4.697 3.744-7.652 4.426-5.194 1.196-9.25-.702-10.753-1.574-1.936-1.124-2.882-2.109-3.718-2.977-.441-.459-1.317-1.486-2.226-3.204C-.423 18.419.036 14.428.057 14.26c.048-.393.084-.92.166-1.307.268-1.26.379-1.781.623-2.403.512-1.305.577-1.472.999-2.241a15.098 15.098 0 0 1 1.35-2.045c.582-.703 1.664-2.011 3.296-3.103.709-.473 2.184-1.461 4.486-2.102a14.999 14.999 0 0 1 3.958-.557h.16"/>
        <path id="aw" d="M15.095.502c.576.003 1.152.04 1.727.11 2.865.351 4.774 1.399 5.59 1.846-2.117-1.203-4.651-1.728-7.374-1.361 2.723-.367 5.257.158 7.374 1.361.522.32 1.221.747 1.702 1.126.436.344 1.168.92 1.859 1.68 1.597 1.757 2.144 2.869 2.744 4.127.648 1.354 1.032 3.146 1.092 3.612.195 1.518.207 1.608.209 2.531.001.73-.095 1.701-.2 2.423-.147.999-.609 2.666-1.13 3.728-.585 1.19-.66 1.343-1.178 2.121a14.593 14.593 0 0 1-1.496 1.895c-2.123 2.256-4.697 3.744-7.652 4.426-5.194 1.196-9.25-.702-10.753-1.574-1.936-1.124-2.882-2.109-3.718-2.977-.441-.459-1.317-1.486-2.226-3.204C-.423 18.419.036 14.428.057 14.26c.048-.393.084-.92.166-1.307.268-1.26.379-1.781.623-2.403.512-1.305.577-1.472.999-2.241a15.098 15.098 0 0 1 1.35-2.045c.582-.703 1.664-2.011 3.296-3.103.709-.473 2.184-1.461 4.486-2.102a14.999 14.999 0 0 1 3.958-.557h.16"/>
        <path id="ay" d="M15.095.502c.576.003 1.152.04 1.727.11 2.865.351 4.774 1.399 5.59 1.846-2.117-1.203-4.651-1.728-7.374-1.361 2.723-.367 5.257.158 7.374 1.361.522.32 1.221.747 1.702 1.126.436.344 1.168.92 1.859 1.68 1.597 1.757 2.144 2.869 2.744 4.127.648 1.354 1.032 3.146 1.092 3.612.195 1.518.207 1.608.209 2.531.001.73-.095 1.701-.2 2.423-.147.999-.609 2.666-1.13 3.728-.585 1.19-.66 1.343-1.178 2.121a14.593 14.593 0 0 1-1.496 1.895c-2.123 2.256-4.697 3.744-7.652 4.426-5.194 1.196-9.25-.702-10.753-1.574-1.936-1.124-2.882-2.109-3.718-2.977-.441-.459-1.317-1.486-2.226-3.204C-.423 18.419.036 14.428.057 14.26c.048-.393.084-.92.166-1.307.268-1.26.379-1.781.623-2.403.512-1.305.577-1.472.999-2.241a15.098 15.098 0 0 1 1.35-2.045c.582-.703 1.664-2.011 3.296-3.103.709-.473 2.184-1.461 4.486-2.102a14.999 14.999 0 0 1 3.958-.557h.16"/>
        <path id="aA" d="M15.095.502c.576.003 1.152.04 1.727.11 2.865.351 4.774 1.399 5.59 1.846-2.117-1.203-4.651-1.728-7.374-1.361 2.723-.367 5.257.158 7.374 1.361.522.32 1.221.747 1.702 1.126.436.344 1.168.92 1.859 1.68 1.597 1.757 2.144 2.869 2.744 4.127.648 1.354 1.032 3.146 1.092 3.612.195 1.518.207 1.608.209 2.531.001.73-.095 1.701-.2 2.423-.147.999-.609 2.666-1.13 3.728-.585 1.19-.66 1.343-1.178 2.121a14.593 14.593 0 0 1-1.496 1.895c-2.123 2.256-4.697 3.744-7.652 4.426-5.194 1.196-9.25-.702-10.753-1.574-1.936-1.124-2.882-2.109-3.718-2.977-.441-.459-1.317-1.486-2.226-3.204C-.423 18.419.036 14.428.057 14.26c.048-.393.084-.92.166-1.307.268-1.26.379-1.781.623-2.403.512-1.305.577-1.472.999-2.241a15.098 15.098 0 0 1 1.35-2.045c.582-.703 1.664-2.011 3.296-3.103.709-.473 2.184-1.461 4.486-2.102a14.999 14.999 0 0 1 3.958-.557h.16"/>
        <path id="aC" d="M15.095.502c.576.003 1.152.04 1.727.11 2.865.351 4.774 1.399 5.59 1.846-2.117-1.203-4.651-1.728-7.374-1.361 2.723-.367 5.257.158 7.374 1.361.522.32 1.221.747 1.702 1.126.436.344 1.168.92 1.859 1.68 1.597 1.757 2.144 2.869 2.744 4.127.648 1.354 1.032 3.146 1.092 3.612.195 1.518.207 1.608.209 2.531.001.73-.095 1.701-.2 2.423-.147.999-.609 2.666-1.13 3.728-.585 1.19-.66 1.343-1.178 2.121a14.593 14.593 0 0 1-1.496 1.895c-2.123 2.256-4.697 3.744-7.652 4.426-5.194 1.196-9.25-.702-10.753-1.574-1.936-1.124-2.882-2.109-3.718-2.977-.441-.459-1.317-1.486-2.226-3.204C-.423 18.419.036 14.428.057 14.26c.048-.393.084-.92.166-1.307.268-1.26.379-1.781.623-2.403.512-1.305.577-1.472.999-2.241a15.098 15.098 0 0 1 1.35-2.045c.582-.703 1.664-2.011 3.296-3.103.709-.473 2.184-1.461 4.486-2.102a14.999 14.999 0 0 1 3.958-.557h.16"/>
        <path id="aE" d="M15.095.502c.576.003 1.152.04 1.727.11 2.865.351 4.774 1.399 5.59 1.846-2.117-1.203-4.651-1.728-7.374-1.361 2.723-.367 5.257.158 7.374 1.361.522.32 1.221.747 1.702 1.126.436.344 1.168.92 1.859 1.68 1.597 1.757 2.144 2.869 2.744 4.127.648 1.354 1.032 3.146 1.092 3.612.195 1.518.207 1.608.209 2.531.001.73-.095 1.701-.2 2.423-.147.999-.609 2.666-1.13 3.728-.585 1.19-.66 1.343-1.178 2.121a14.593 14.593 0 0 1-1.496 1.895c-2.123 2.256-4.697 3.744-7.652 4.426-5.194 1.196-9.25-.702-10.753-1.574-1.936-1.124-2.882-2.109-3.718-2.977-.441-.459-1.317-1.486-2.226-3.204C-.423 18.419.036 14.428.057 14.26c.048-.393.084-.92.166-1.307.268-1.26.379-1.781.623-2.403.512-1.305.577-1.472.999-2.241a15.098 15.098 0 0 1 1.35-2.045c.582-.703 1.664-2.011 3.296-3.103.709-.473 2.184-1.461 4.486-2.102a14.999 14.999 0 0 1 3.958-.557h.16"/>
        <path id="aG" d="M15.095.502c.576.003 1.152.04 1.727.11 2.865.351 4.774 1.399 5.59 1.846-2.117-1.203-4.651-1.728-7.374-1.361 2.723-.367 5.257.158 7.374 1.361.522.32 1.221.747 1.702 1.126.436.344 1.168.92 1.859 1.68 1.597 1.757 2.144 2.869 2.744 4.127.648 1.354 1.032 3.146 1.092 3.612.195 1.518.207 1.608.209 2.531.001.73-.095 1.701-.2 2.423-.147.999-.609 2.666-1.13 3.728-.585 1.19-.66 1.343-1.178 2.121a14.593 14.593 0 0 1-1.496 1.895c-2.123 2.256-4.697 3.744-7.652 4.426-5.194 1.196-9.25-.702-10.753-1.574-1.936-1.124-2.882-2.109-3.718-2.977-.441-.459-1.317-1.486-2.226-3.204C-.423 18.419.036 14.428.057 14.26c.048-.393.084-.92.166-1.307.268-1.26.379-1.781.623-2.403.512-1.305.577-1.472.999-2.241a15.098 15.098 0 0 1 1.35-2.045c.582-.703 1.664-2.011 3.296-3.103.709-.473 2.184-1.461 4.486-2.102a14.999 14.999 0 0 1 3.958-.557h.16"/>
        <path id="aI" d="M15.095.502c.576.003 1.152.04 1.727.11 2.865.351 4.774 1.399 5.59 1.846-2.117-1.203-4.651-1.728-7.374-1.361 2.723-.367 5.257.158 7.374 1.361.522.32 1.221.747 1.702 1.126.436.344 1.168.92 1.859 1.68 1.597 1.757 2.144 2.869 2.744 4.127.648 1.354 1.032 3.146 1.092 3.612.195 1.518.207 1.608.209 2.531.001.73-.095 1.701-.2 2.423-.147.999-.609 2.666-1.13 3.728-.585 1.19-.66 1.343-1.178 2.121a14.593 14.593 0 0 1-1.496 1.895c-2.123 2.256-4.697 3.744-7.652 4.426-5.194 1.196-9.25-.702-10.753-1.574-1.936-1.124-2.882-2.109-3.718-2.977-.441-.459-1.317-1.486-2.226-3.204C-.423 18.419.036 14.428.057 14.26c.048-.393.084-.92.166-1.307.268-1.26.379-1.781.623-2.403.512-1.305.577-1.472.999-2.241a15.098 15.098 0 0 1 1.35-2.045c.582-.703 1.664-2.011 3.296-3.103.709-.473 2.184-1.461 4.486-2.102a14.999 14.999 0 0 1 3.958-.557h.16"/>
        <path id="aK" d="M15.095.502c.576.003 1.152.04 1.727.11 2.865.351 4.774 1.399 5.59 1.846-2.117-1.203-4.651-1.728-7.374-1.361 2.723-.367 5.257.158 7.374 1.361.522.32 1.221.747 1.702 1.126.436.344 1.168.92 1.859 1.68 1.597 1.757 2.144 2.869 2.744 4.127.648 1.354 1.032 3.146 1.092 3.612.195 1.518.207 1.608.209 2.531.001.73-.095 1.701-.2 2.423-.147.999-.609 2.666-1.13 3.728-.585 1.19-.66 1.343-1.178 2.121a14.593 14.593 0 0 1-1.496 1.895c-2.123 2.256-4.697 3.744-7.652 4.426-5.194 1.196-9.25-.702-10.753-1.574-1.936-1.124-2.882-2.109-3.718-2.977-.441-.459-1.317-1.486-2.226-3.204C-.423 18.419.036 14.428.057 14.26c.048-.393.084-.92.166-1.307.268-1.26.379-1.781.623-2.403.512-1.305.577-1.472.999-2.241a15.098 15.098 0 0 1 1.35-2.045c.582-.703 1.664-2.011 3.296-3.103.709-.473 2.184-1.461 4.486-2.102a14.999 14.999 0 0 1 3.958-.557h.16"/>
        <path id="aM" d="M15.095.502c.576.003 1.152.04 1.727.11 2.865.351 4.774 1.399 5.59 1.846-2.117-1.203-4.651-1.728-7.374-1.361 2.723-.367 5.257.158 7.374 1.361.522.32 1.221.747 1.702 1.126.436.344 1.168.92 1.859 1.68 1.597 1.757 2.144 2.869 2.744 4.127.648 1.354 1.032 3.146 1.092 3.612.195 1.518.207 1.608.209 2.531.001.73-.095 1.701-.2 2.423-.147.999-.609 2.666-1.13 3.728-.585 1.19-.66 1.343-1.178 2.121a14.593 14.593 0 0 1-1.496 1.895c-2.123 2.256-4.697 3.744-7.652 4.426-5.194 1.196-9.25-.702-10.753-1.574-1.936-1.124-2.882-2.109-3.718-2.977-.441-.459-1.317-1.486-2.226-3.204C-.423 18.419.036 14.428.057 14.26c.048-.393.084-.92.166-1.307.268-1.26.379-1.781.623-2.403.512-1.305.577-1.472.999-2.241a15.098 15.098 0 0 1 1.35-2.045c.582-.703 1.664-2.011 3.296-3.103.709-.473 2.184-1.461 4.486-2.102a14.999 14.999 0 0 1 3.958-.557h.16"/>
        <path id="aO" d="M15.095.502c.576.003 1.152.04 1.727.11 2.865.351 4.774 1.399 5.59 1.846-2.117-1.203-4.651-1.728-7.374-1.361 2.723-.367 5.257.158 7.374 1.361.522.32 1.221.747 1.702 1.126.436.344 1.168.92 1.859 1.68 1.597 1.757 2.144 2.869 2.744 4.127.648 1.354 1.032 3.146 1.092 3.612.195 1.518.207 1.608.209 2.531.001.73-.095 1.701-.2 2.423-.147.999-.609 2.666-1.13 3.728-.585 1.19-.66 1.343-1.178 2.121a14.593 14.593 0 0 1-1.496 1.895c-2.123 2.256-4.697 3.744-7.652 4.426-5.194 1.196-9.25-.702-10.753-1.574-1.936-1.124-2.882-2.109-3.718-2.977-.441-.459-1.317-1.486-2.226-3.204C-.423 18.419.036 14.428.057 14.26c.048-.393.084-.92.166-1.307.268-1.26.379-1.781.623-2.403.512-1.305.577-1.472.999-2.241a15.098 15.098 0 0 1 1.35-2.045c.582-.703 1.664-2.011 3.296-3.103.709-.473 2.184-1.461 4.486-2.102a14.999 14.999 0 0 1 3.958-.557h.16"/>
        <path id="aQ" d="M15.095.502c.576.003 1.152.04 1.727.11 2.865.351 4.774 1.399 5.59 1.846-2.117-1.203-4.651-1.728-7.374-1.361 2.723-.367 5.257.158 7.374 1.361.522.32 1.221.747 1.702 1.126.436.344 1.168.92 1.859 1.68 1.597 1.757 2.144 2.869 2.744 4.127.648 1.354 1.032 3.146 1.092 3.612.195 1.518.207 1.608.209 2.531.001.73-.095 1.701-.2 2.423-.147.999-.609 2.666-1.13 3.728-.585 1.19-.66 1.343-1.178 2.121a14.593 14.593 0 0 1-1.496 1.895c-2.123 2.256-4.697 3.744-7.652 4.426-5.194 1.196-9.25-.702-10.753-1.574-1.936-1.124-2.882-2.109-3.718-2.977-.441-.459-1.317-1.486-2.226-3.204C-.423 18.419.036 14.428.057 14.26c.048-.393.084-.92.166-1.307.268-1.26.379-1.781.623-2.403.512-1.305.577-1.472.999-2.241a15.098 15.098 0 0 1 1.35-2.045c.582-.703 1.664-2.011 3.296-3.103.709-.473 2.184-1.461 4.486-2.102a14.999 14.999 0 0 1 3.958-.557h.16"/>
        <path id="aS" d="M15.095.502c.576.003 1.152.04 1.727.11 2.865.351 4.774 1.399 5.59 1.846-2.117-1.203-4.651-1.728-7.374-1.361 2.723-.367 5.257.158 7.374 1.361.522.32 1.221.747 1.702 1.126.436.344 1.168.92 1.859 1.68 1.597 1.757 2.144 2.869 2.744 4.127.648 1.354 1.032 3.146 1.092 3.612.195 1.518.207 1.608.209 2.531.001.73-.095 1.701-.2 2.423-.147.999-.609 2.666-1.13 3.728-.585 1.19-.66 1.343-1.178 2.121a14.593 14.593 0 0 1-1.496 1.895c-2.123 2.256-4.697 3.744-7.652 4.426-5.194 1.196-9.25-.702-10.753-1.574-1.936-1.124-2.882-2.109-3.718-2.977-.441-.459-1.317-1.486-2.226-3.204C-.423 18.419.036 14.428.057 14.26c.048-.393.084-.92.166-1.307.268-1.26.379-1.781.623-2.403.512-1.305.577-1.472.999-2.241a15.098 15.098 0 0 1 1.35-2.045c.582-.703 1.664-2.011 3.296-3.103.709-.473 2.184-1.461 4.486-2.102a14.999 14.999 0 0 1 3.958-.557h.16"/>
        <path id="aU" d="M15.095.502c.576.003 1.152.04 1.727.11 2.865.351 4.774 1.399 5.59 1.846-2.117-1.203-4.651-1.728-7.374-1.361 2.723-.367 5.257.158 7.374 1.361.522.32 1.221.747 1.702 1.126.436.344 1.168.92 1.859 1.68 1.597 1.757 2.144 2.869 2.744 4.127.648 1.354 1.032 3.146 1.092 3.612.195 1.518.207 1.608.209 2.531.001.73-.095 1.701-.2 2.423-.147.999-.609 2.666-1.13 3.728-.585 1.19-.66 1.343-1.178 2.121a14.593 14.593 0 0 1-1.496 1.895c-2.123 2.256-4.697 3.744-7.652 4.426-5.194 1.196-9.25-.702-10.753-1.574-1.936-1.124-2.882-2.109-3.718-2.977-.441-.459-1.317-1.486-2.226-3.204C-.423 18.419.036 14.428.057 14.26c.048-.393.084-.92.166-1.307.268-1.26.379-1.781.623-2.403.512-1.305.577-1.472.999-2.241a15.098 15.098 0 0 1 1.35-2.045c.582-.703 1.664-2.011 3.296-3.103.709-.473 2.184-1.461 4.486-2.102a14.999 14.999 0 0 1 3.958-.557h.16"/>
        <path id="aW" d="M15.095.502c.576.003 1.152.04 1.727.11 2.865.351 4.774 1.399 5.59 1.846-2.117-1.203-4.651-1.728-7.374-1.361 2.723-.367 5.257.158 7.374 1.361.522.32 1.221.747 1.702 1.126.436.344 1.168.92 1.859 1.68 1.597 1.757 2.144 2.869 2.744 4.127.648 1.354 1.032 3.146 1.092 3.612.195 1.518.207 1.608.209 2.531.001.73-.095 1.701-.2 2.423-.147.999-.609 2.666-1.13 3.728-.585 1.19-.66 1.343-1.178 2.121a14.593 14.593 0 0 1-1.496 1.895c-2.123 2.256-4.697 3.744-7.652 4.426-5.194 1.196-9.25-.702-10.753-1.574-1.936-1.124-2.882-2.109-3.718-2.977-.441-.459-1.317-1.486-2.226-3.204C-.423 18.419.036 14.428.057 14.26c.048-.393.084-.92.166-1.307.268-1.26.379-1.781.623-2.403.512-1.305.577-1.472.999-2.241a15.098 15.098 0 0 1 1.35-2.045c.582-.703 1.664-2.011 3.296-3.103.709-.473 2.184-1.461 4.486-2.102a14.999 14.999 0 0 1 3.958-.557h.16"/>
        <path id="aY" d="M15.095.502c.576.003 1.152.04 1.727.11 2.865.351 4.774 1.399 5.59 1.846-2.117-1.203-4.651-1.728-7.374-1.361 2.723-.367 5.257.158 7.374 1.361.522.32 1.221.747 1.702 1.126.436.344 1.168.92 1.859 1.68 1.597 1.757 2.144 2.869 2.744 4.127.648 1.354 1.032 3.146 1.092 3.612.195 1.518.207 1.608.209 2.531.001.73-.095 1.701-.2 2.423-.147.999-.609 2.666-1.13 3.728-.585 1.19-.66 1.343-1.178 2.121a14.593 14.593 0 0 1-1.496 1.895c-2.123 2.256-4.697 3.744-7.652 4.426-5.194 1.196-9.25-.702-10.753-1.574-1.936-1.124-2.882-2.109-3.718-2.977-.441-.459-1.317-1.486-2.226-3.204C-.423 18.419.036 14.428.057 14.26c.048-.393.084-.92.166-1.307.268-1.26.379-1.781.623-2.403.512-1.305.577-1.472.999-2.241a15.098 15.098 0 0 1 1.35-2.045c.582-.703 1.664-2.011 3.296-3.103.709-.473 2.184-1.461 4.486-2.102a14.999 14.999 0 0 1 3.958-.557h.16"/>
        <path id="ba" d="M15.095.502c.576.003 1.152.04 1.727.11 2.865.351 4.774 1.399 5.59 1.846-2.117-1.203-4.651-1.728-7.374-1.361 2.723-.367 5.257.158 7.374 1.361.522.32 1.221.747 1.702 1.126.436.344 1.168.92 1.859 1.68 1.597 1.757 2.144 2.869 2.744 4.127.648 1.354 1.032 3.146 1.092 3.612.195 1.518.207 1.608.209 2.531.001.73-.095 1.701-.2 2.423-.147.999-.609 2.666-1.13 3.728-.585 1.19-.66 1.343-1.178 2.121a14.593 14.593 0 0 1-1.496 1.895c-2.123 2.256-4.697 3.744-7.652 4.426-5.194 1.196-9.25-.702-10.753-1.574-1.936-1.124-2.882-2.109-3.718-2.977-.441-.459-1.317-1.486-2.226-3.204C-.423 18.419.036 14.428.057 14.26c.048-.393.084-.92.166-1.307.268-1.26.379-1.781.623-2.403.512-1.305.577-1.472.999-2.241a15.098 15.098 0 0 1 1.35-2.045c.582-.703 1.664-2.011 3.296-3.103.709-.473 2.184-1.461 4.486-2.102a14.999 14.999 0 0 1 3.958-.557h.16"/>
        <path id="bc" d="M15.095.502c.576.003 1.152.04 1.727.11 2.865.351 4.774 1.399 5.59 1.846-2.117-1.203-4.651-1.728-7.374-1.361 2.723-.367 5.257.158 7.374 1.361.522.32 1.221.747 1.702 1.126.436.344 1.168.92 1.859 1.68 1.597 1.757 2.144 2.869 2.744 4.127.648 1.354 1.032 3.146 1.092 3.612.195 1.518.207 1.608.209 2.531.001.73-.095 1.701-.2 2.423-.147.999-.609 2.666-1.13 3.728-.585 1.19-.66 1.343-1.178 2.121a14.593 14.593 0 0 1-1.496 1.895c-2.123 2.256-4.697 3.744-7.652 4.426-5.194 1.196-9.25-.702-10.753-1.574-1.936-1.124-2.882-2.109-3.718-2.977-.441-.459-1.317-1.486-2.226-3.204C-.423 18.419.036 14.428.057 14.26c.048-.393.084-.92.166-1.307.268-1.26.379-1.781.623-2.403.512-1.305.577-1.472.999-2.241a15.098 15.098 0 0 1 1.35-2.045c.582-.703 1.664-2.011 3.296-3.103.709-.473 2.184-1.461 4.486-2.102a14.999 14.999 0 0 1 3.958-.557h.16"/>
        <path id="be" d="M15.095.502c.576.003 1.152.04 1.727.11 2.865.351 4.774 1.399 5.59 1.846-2.117-1.203-4.651-1.728-7.374-1.361 2.723-.367 5.257.158 7.374 1.361.522.32 1.221.747 1.702 1.126.436.344 1.168.92 1.859 1.68 1.597 1.757 2.144 2.869 2.744 4.127.648 1.354 1.032 3.146 1.092 3.612.195 1.518.207 1.608.209 2.531.001.73-.095 1.701-.2 2.423-.147.999-.609 2.666-1.13 3.728-.585 1.19-.66 1.343-1.178 2.121a14.593 14.593 0 0 1-1.496 1.895c-2.123 2.256-4.697 3.744-7.652 4.426-5.194 1.196-9.25-.702-10.753-1.574-1.936-1.124-2.882-2.109-3.718-2.977-.441-.459-1.317-1.486-2.226-3.204C-.423 18.419.036 14.428.057 14.26c.048-.393.084-.92.166-1.307.268-1.26.379-1.781.623-2.403.512-1.305.577-1.472.999-2.241a15.098 15.098 0 0 1 1.35-2.045c.582-.703 1.664-2.011 3.296-3.103.709-.473 2.184-1.461 4.486-2.102a14.999 14.999 0 0 1 3.958-.557h.16"/>
        <path id="bg" d="M15.095.502c.576.003 1.152.04 1.727.11 2.865.351 4.774 1.399 5.59 1.846-2.117-1.203-4.651-1.728-7.374-1.361 2.723-.367 5.257.158 7.374 1.361.522.32 1.221.747 1.702 1.126.436.344 1.168.92 1.859 1.68 1.597 1.757 2.144 2.869 2.744 4.127.648 1.354 1.032 3.146 1.092 3.612.195 1.518.207 1.608.209 2.531.001.73-.095 1.701-.2 2.423-.147.999-.609 2.666-1.13 3.728-.585 1.19-.66 1.343-1.178 2.121a14.593 14.593 0 0 1-1.496 1.895c-2.123 2.256-4.697 3.744-7.652 4.426-5.194 1.196-9.25-.702-10.753-1.574-1.936-1.124-2.882-2.109-3.718-2.977-.441-.459-1.317-1.486-2.226-3.204C-.423 18.419.036 14.428.057 14.26c.048-.393.084-.92.166-1.307.268-1.26.379-1.781.623-2.403.512-1.305.577-1.472.999-2.241a15.098 15.098 0 0 1 1.35-2.045c.582-.703 1.664-2.011 3.296-3.103.709-.473 2.184-1.461 4.486-2.102a14.999 14.999 0 0 1 3.958-.557h.16"/>
        <path id="bi" d="M15.095.502c.576.003 1.152.04 1.727.11 2.865.351 4.774 1.399 5.59 1.846-2.117-1.203-4.651-1.728-7.374-1.361 2.723-.367 5.257.158 7.374 1.361.522.32 1.221.747 1.702 1.126.436.344 1.168.92 1.859 1.68 1.597 1.757 2.144 2.869 2.744 4.127.648 1.354 1.032 3.146 1.092 3.612.195 1.518.207 1.608.209 2.531.001.73-.095 1.701-.2 2.423-.147.999-.609 2.666-1.13 3.728-.585 1.19-.66 1.343-1.178 2.121a14.593 14.593 0 0 1-1.496 1.895c-2.123 2.256-4.697 3.744-7.652 4.426-5.194 1.196-9.25-.702-10.753-1.574-1.936-1.124-2.882-2.109-3.718-2.977-.441-.459-1.317-1.486-2.226-3.204C-.423 18.419.036 14.428.057 14.26c.048-.393.084-.92.166-1.307.268-1.26.379-1.781.623-2.403.512-1.305.577-1.472.999-2.241a15.098 15.098 0 0 1 1.35-2.045c.582-.703 1.664-2.011 3.296-3.103.709-.473 2.184-1.461 4.486-2.102a14.999 14.999 0 0 1 3.958-.557h.16"/>
    </defs>
    <g fill="none" fill-rule="evenodd">
        <g transform="translate(0 -.502)">
            <mask id="b" fill="#fff">
                <use xlink:href="#a"/>
            </mask>
            <path fill="#545454" d="M.005 15.485C.23 29.151 16.391 35.68 25.815 25.912c6.81-7.059 5.155-18.457-3.403-23.454 3.663 2.081 6.08 6.194 6.07 11.24-.015 7.954-6.064 15.216-13.498 16.216 7.434-1 13.483-8.262 13.498-16.216.01-5.046-2.407-9.159-6.07-11.24C11.394-3.387-.166 5.103.005 15.485" mask="url(#b)"/>
        </g>
        <g transform="translate(0 -.502)">
            <mask id="d" fill="#fff">
                <use xlink:href="#c"/>
            </mask>
            <path fill="#545454" d="M28.482 13.698c-.015 7.954-6.063 15.216-13.497 16.216h-.05C.922 30.281-2.516 15.234 2.932 9.557c6.932-7.22 19.277-.006 20.088 9.29.705 8.066-5.42 10.167-8.035 11.066 7.434-1 13.482-8.262 13.497-16.216.01-5.046-2.406-9.159-6.07-11.24l-.767-.407c-.346-.16-.81-.37-1.16-.514l-.634-.233c-.223-.07-.518-.167-.743-.232l-.512-.135c-.162-.037-.377-.089-.54-.122L17.63.733c-.128-.02-.3-.05-.43-.07l-.373-.05-.37-.04-.341-.029a40.992 40.992 0 0 0-.338-.022L15.452.51c-.098-.002-.228-.006-.325-.007L14.8.504l-.328.008-.341.016-.35.025-.376.036-.395.047-.492.076c-1.425.27-2.11.49-3.198.913l-.777.344c-1.005.52-1.066.55-1.647.92l-.837.581c-.36.287-.838.671-1.182.977l-.778.767c-.274.312-.645.724-.905 1.05l-.662.913c-.208.338-.494.785-.688 1.131L1.33 9.34c-.148.362-.354.841-.485 1.21L.5 11.675c-.085.382-.21.891-.278 1.278L.066 14.15c-.02.401-.06.934-.061 1.335l.047 1.225c.077.641.2 1.495.325 2.13l.306 1.14c.13.364.292.854.437 1.211l.48 1.054c.189.34.429.796.63 1.126l.633.941c.245.312.564.732.822 1.032l.752.802c.308.283.714.665 1.034.935l.812.623c.393.262.92.607 1.326.848l.768.407c.346.16.808.37 1.16.514l.633.232c.223.071.52.168.745.233l.51.135c.163.037.378.09.54.122l.427.082c.13.022.3.051.43.07l.374.05c.11.012.259.03.37.04l.34.03c.102.006.238.016.34.021l.325.013c.098.002.227.006.325.007h.325l.329-.01.34-.016c.106-.008.246-.016.35-.025l.377-.035.395-.048.489-.075c.942-.177 1.71-.342 3.035-.845l.766-.33c.966-.48 1.067-.53 1.688-.916l.838-.568c.365-.285.852-.669 1.203-.972l.784-.756c.278-.31.654-.722.919-1.045l.67-.905c.213-.336.504-.78.7-1.125l.525-1.025c.15-.36.363-.838.498-1.204l.355-1.119c.089-.382.219-.889.29-1.274l.17-1.192c.026-.446.07-1.042.076-1.489l-.048-1.226c-.047-.39-.096-.917-.161-1.305l-.244-1.167c-.11-.372-.244-.87-.37-1.239l-.424-1.086c-.168-.347-.383-.816-.565-1.156l-.584-.983c-.226-.32-.52-.754-.757-1.065l-.717-.852c-.284-.293-.66-.689-.958-.968l-.791-.68c-1.047-.783-1.156-.865-1.986-1.349 3.663 2.081 6.079 6.194 6.069 11.24" mask="url(#d)"/>
        </g>
        <g transform="translate(0 -.502)">
            <mask id="f" fill="#fff">
                <use xlink:href="#e"/>
            </mask>
            <path fill="#525252" d="M28.482 13.698c-.012 6.634-4.222 12.786-9.932 15.226l-.418.23C8.69 33.531-2.648 22.725.802 12.635c3.027-8.848 16.265-9.173 21.66 1.958 1.772 3.653 2.276 10.775-3.912 14.33 5.71-2.44 9.92-8.592 9.932-15.226.01-5.046-2.406-9.159-6.07-11.24l-.767-.407c-.346-.16-.81-.37-1.16-.514l-.634-.233c-.223-.07-.518-.167-.743-.232l-.512-.135c-.162-.037-.377-.089-.54-.122L17.63.733c-.128-.02-.3-.05-.43-.07l-.373-.05-.37-.04-.341-.029a40.992 40.992 0 0 0-.338-.022L15.452.51c-.098-.002-.228-.006-.325-.007L14.8.504l-.328.008-.341.016-.35.025-.376.036-.395.047-.492.076c-1.425.27-2.11.49-3.198.913l-.777.344c-1.005.52-1.066.55-1.647.92l-.837.581c-.36.287-.838.671-1.182.977l-.778.767c-.274.312-.645.724-.905 1.05l-.662.913c-.208.338-.494.785-.688 1.131L1.33 9.34c-.148.362-.354.841-.485 1.21L.5 11.675c-.085.382-.21.891-.278 1.278L.066 14.15c-.02.401-.06.934-.061 1.335l.047 1.225c.077.641.2 1.495.325 2.13l.306 1.14c.13.364.292.854.437 1.211l.48 1.054c.189.34.429.796.63 1.126l.633.941c.245.312.564.732.822 1.032l.752.802c.308.283.714.665 1.034.935l.812.623c.393.262.92.607 1.326.848l.768.407c.346.16.808.37 1.16.514l.633.232c.223.071.52.168.745.233l.51.135c.163.037.378.09.54.122l.427.082c.13.022.3.051.43.07l.374.05c.11.012.259.03.37.04l.34.03c.102.006.238.016.34.021l.325.013c.098.002.227.006.325.007h.325l.329-.01.34-.016c.106-.008.246-.016.35-.025l.377-.035.395-.048.489-.075c.942-.177 1.71-.342 3.035-.845l.766-.33c.966-.48 1.067-.53 1.688-.916l.838-.568c.365-.285.852-.669 1.203-.972l.784-.756c.278-.31.654-.722.919-1.045l.67-.905c.213-.336.504-.78.7-1.125l.525-1.025c.15-.36.363-.838.498-1.204l.355-1.119c.089-.382.219-.889.29-1.274l.17-1.192c.026-.446.07-1.042.076-1.489l-.048-1.226c-.047-.39-.096-.917-.161-1.305l-.244-1.167c-.11-.372-.244-.87-.37-1.239l-.424-1.086c-.168-.347-.383-.816-.565-1.156l-.584-.983c-.226-.32-.52-.754-.757-1.065l-.717-.852c-.284-.293-.66-.689-.958-.968l-.791-.68c-1.047-.783-1.156-.865-1.986-1.349 3.663 2.081 6.079 6.194 6.069 11.24" mask="url(#f)"/>
        </g>
        <g transform="translate(0 -.502)">
            <mask id="h" fill="#fff">
                <use xlink:href="#g"/>
            </mask>
            <path fill="#4F4F4F" d="M.404 18.927C-1.953 8.049 8.954 2.28 16.98 7.467c8.369 5.408 9.102 15.655 3.83 20.25 4.528-2.931 7.66-8.295 7.672-14.02.01-5.044-2.406-9.158-6.07-11.24l-.767-.406a34.322 34.322 0 0 0-1.16-.514l-.634-.232c-.222-.07-.518-.167-.743-.232l-.512-.135c-.162-.037-.377-.09-.54-.122l-.425-.082A29.777 29.777 0 0 0 17.2.663l-.373-.05c-.111-.011-.26-.03-.37-.04l-.341-.03a38.302 38.302 0 0 0-.338-.02L15.452.51c-.098-.002-.228-.006-.325-.007H14.8c-.098.004-.23.006-.328.01l-.34.016c-.106.007-.246.016-.351.025l-.376.035c-.118.015-.276.032-.395.048l-.492.075c-1.425.27-2.11.49-3.198.913l-.777.345c-1.005.519-1.066.55-1.647.92l-.837.58c-.36.287-.838.672-1.181.978l-.78.766c-.273.313-.644.725-.904 1.05l-.662.914c-.208.338-.494.784-.688 1.13L1.33 9.34c-.148.362-.354.842-.485 1.21L.5 11.675c-.085.383-.21.892-.278 1.278L.066 14.15c-.02.4-.058.933-.06 1.335l.046 1.224c.078.642.202 1.495.325 2.129l.306 1.142.314.9-.364-1.072c-.07-.265-.166-.616-.23-.882" mask="url(#h)"/>
        </g>
        <g transform="translate(0 -.502)">
            <mask id="j" fill="#fff">
                <use xlink:href="#i"/>
            </mask>
            <path fill="#4F4F4F" d="M28.482 13.698c-.011 5.724-3.145 11.088-7.672 14.02l-.522.493c-2.186 1.6-6.814 3.728-13.244.003.393.235.928.531 1.333.745.346.16.808.37 1.16.514l.633.232c.223.071.52.168.745.233l.51.135c.163.037.378.09.54.122l.427.082c.13.022.3.051.43.07l.374.05c.11.012.259.03.37.04l.34.03c.102.006.238.016.34.021l.325.013c.098.002.227.006.325.007h.325l.329-.01.34-.016c.106-.008.246-.016.35-.025l.377-.035.395-.048.489-.075c.942-.177 1.71-.342 3.035-.845l.766-.33c.966-.48 1.067-.53 1.688-.916l.838-.568c.365-.285.852-.669 1.203-.972l.784-.756c.278-.31.654-.722.919-1.045l.67-.905c.213-.336.504-.78.7-1.125l.525-1.025c.15-.36.363-.838.498-1.204l.355-1.119c.089-.382.219-.889.29-1.274l.17-1.192c.026-.446.07-1.042.076-1.489l-.048-1.226c-.047-.39-.096-.917-.161-1.305l-.244-1.167c-.11-.372-.244-.87-.37-1.239l-.424-1.086c-.168-.347-.383-.816-.565-1.156l-.584-.983c-.226-.32-.52-.754-.757-1.065l-.717-.852c-.284-.293-.66-.689-.958-.968l-.791-.68c-1.047-.783-1.156-.865-1.986-1.349 3.663 2.081 6.079 6.194 6.069 11.24" mask="url(#j)"/>
        </g>
        <g transform="translate(0 -.502)">
            <mask id="l" fill="#fff">
                <use xlink:href="#k"/>
            </mask>
            <path fill="#4D4D4D" d="M.133 17.477C-.887 5.617 10.69 1.671 19.011 8.05c5.34 4.093 8.06 12.683 3.423 18.462 3.636-3.069 6.04-7.805 6.048-12.814.01-5.046-2.407-9.159-6.07-11.24l-.767-.408a34.071 34.071 0 0 0-1.16-.512l-.634-.234c-.223-.07-.519-.167-.743-.232l-.512-.135C18.434.9 18.22.849 18.057.816L17.63.735a20.36 20.36 0 0 0-.43-.07l-.374-.05c-.11-.012-.258-.03-.37-.04l-.34-.03-.338-.022-.327-.013c-.097-.002-.227-.006-.325-.007l-.325.001c-.099.003-.23.005-.328.01l-.34.015c-.106.008-.246.016-.352.025l-.376.035c-.118.016-.276.034-.394.048l-.492.076c-1.425.27-2.11.49-3.198.913l-.778.345c-1.005.519-1.065.55-1.646.92l-.837.58c-.36.286-.838.671-1.182.977l-.778.766c-.275.314-.646.726-.905 1.05l-.663.915c-.208.338-.494.784-.687 1.13L1.33 9.34c-.147.364-.353.842-.484 1.21L.5 11.675c-.085.382-.21.891-.277 1.278L.066 14.15c-.02.4-.059.934-.06 1.335l.046 1.224.126 1.087-.045-.319" mask="url(#l)"/>
        </g>
        <g transform="translate(0 -.502)">
            <mask id="n" fill="#fff">
                <use xlink:href="#m"/>
            </mask>
            <path fill="#4D4D4D" d="M28.482 13.698c-.01 5.01-2.412 9.745-6.048 12.814-.142.19-.334.441-.476.63-4.246 4.368-9.37 3.424-12.044 2.473l.627.211.374.112.51.135c.163.037.378.09.54.122l.427.082c.13.022.3.051.43.07l.374.05c.11.012.259.03.37.04l.34.03c.102.006.238.016.34.021l.325.013c.098.002.227.006.325.007h.325l.329-.01.34-.016c.106-.008.246-.016.35-.025l.377-.035.395-.048.489-.075c.942-.177 1.71-.342 3.035-.845l.766-.33c.966-.48 1.067-.53 1.688-.916l.838-.568c.365-.285.852-.669 1.203-.972l.784-.756c.278-.31.654-.722.919-1.045l.67-.905c.213-.336.504-.78.7-1.125l.525-1.025c.15-.36.363-.838.498-1.204l.355-1.119c.089-.382.219-.889.29-1.274l.17-1.192c.026-.446.07-1.042.076-1.489l-.048-1.226c-.047-.39-.096-.917-.161-1.305l-.244-1.167c-.11-.372-.244-.87-.37-1.239l-.424-1.086c-.168-.347-.383-.816-.565-1.156l-.584-.983c-.226-.32-.52-.754-.757-1.065l-.717-.852c-.284-.293-.66-.689-.958-.968l-.791-.68c-1.047-.783-1.156-.865-1.986-1.349 3.663 2.081 6.079 6.194 6.069 11.24" mask="url(#n)"/>
        </g>
        <g transform="translate(0 -.502)">
            <mask id="p" fill="#fff">
                <use xlink:href="#o"/>
            </mask>
            <path fill="#4A4A4A" d="M.565 11.773c3.168-9.966 17.289-9.777 22.893.306 3.503 6.302 1.456 11.237.413 13.065 2.819-3.017 4.603-7.13 4.61-11.446.01-5.046-2.405-9.159-6.068-11.24l-.768-.408a34.071 34.071 0 0 0-1.16-.513l-.634-.233c-.223-.07-.518-.167-.743-.232l-.512-.135c-.162-.037-.377-.089-.54-.122L17.63.733c-.128-.022-.3-.05-.43-.07l-.373-.05-.37-.04-.341-.029a40.992 40.992 0 0 0-.338-.022L15.452.51c-.098-.002-.228-.006-.325-.007L14.8.503c-.098.003-.23.005-.328.01l-.341.015c-.105.008-.245.016-.35.025l-.376.035-.395.048-.492.075c-1.425.27-2.11.491-3.198.914l-.777.344c-1.005.52-1.066.55-1.647.92l-.837.581c-.36.286-.838.671-1.182.977l-.778.766c-.274.313-.645.725-.905 1.05l-.662.914c-.208.338-.494.784-.688 1.131L1.33 9.34c-.148.363-.354.842-.485 1.21L.5 11.674c-.085.383-.21.892-.278 1.28L.066 14.15l-.06 1.141.064-1.088c.178-1.213.237-1.62.495-2.43" mask="url(#p)"/>
        </g>
        <g transform="translate(0 -.502)">
            <mask id="r" fill="#fff">
                <use xlink:href="#q"/>
            </mask>
            <path fill="#4A4A4A" d="M28.482 13.698c-.008 4.316-1.792 8.43-4.611 11.446l-.292.571c-2.308 3.62-6.271 5.3-10.874 4.615l.49.067c.112.012.26.03.37.04l.342.03c.1.006.237.016.339.021l.325.013c.098.002.227.006.325.007h.325l.329-.01.34-.016c.106-.008.246-.016.35-.025l.377-.035.395-.048.489-.075c.942-.177 1.71-.342 3.035-.845l.766-.33c.966-.48 1.067-.53 1.688-.916l.838-.568c.365-.285.852-.669 1.203-.972l.784-.756c.278-.31.654-.722.919-1.045l.67-.905c.213-.336.504-.78.7-1.125l.525-1.025c.15-.36.363-.838.498-1.204l.355-1.119c.089-.382.219-.889.29-1.274l.17-1.192c.026-.446.07-1.042.076-1.489l-.048-1.226c-.047-.39-.096-.917-.161-1.305l-.244-1.167c-.11-.372-.244-.87-.37-1.239l-.424-1.086c-.168-.347-.383-.816-.565-1.156l-.584-.983c-.226-.32-.52-.754-.757-1.065l-.717-.852c-.284-.293-.66-.689-.958-.968l-.791-.68c-1.047-.783-1.156-.865-1.986-1.349 3.663 2.081 6.079 6.194 6.069 11.24" mask="url(#r)"/>
        </g>
        <g transform="translate(0 -.502)">
            <mask id="t" fill="#fff">
                <use xlink:href="#s"/>
            </mask>
            <path fill="#484848" d="M.488 11.76C3.7.933 18.422 1.243 24.353 12.264c1.989 3.696 2.253 7.633.763 11.387 2.089-2.817 3.359-6.312 3.366-9.953.01-5.045-2.406-9.16-6.07-11.24l-.767-.407a34.322 34.322 0 0 0-1.16-.514l-.634-.232c-.222-.07-.518-.167-.743-.233l-.512-.134c-.162-.037-.377-.09-.54-.122l-.425-.082A29.777 29.777 0 0 0 17.2.663l-.373-.05c-.111-.011-.26-.03-.37-.04l-.341-.03a38.302 38.302 0 0 0-.338-.02L15.452.51c-.098-.002-.228-.006-.325-.007H14.8c-.098.004-.23.006-.328.01l-.34.016c-.106.007-.246.016-.351.025l-.376.035c-.118.015-.276.032-.395.048l-.492.075c-1.425.27-2.11.49-3.198.913l-.777.345c-1.005.519-1.066.55-1.647.92l-.837.58c-.36.287-.838.672-1.181.978l-.78.766c-.273.313-.644.725-.904 1.05l-.662.914c-.208.338-.494.784-.688 1.13L1.33 9.34c-.148.362-.354.842-.485 1.21L.5 11.675c-.078.355-.197.825-.261 1.183l.232-1.041c.006-.017.01-.04.016-.057" mask="url(#t)"/>
        </g>
        <g transform="translate(0 -.502)">
            <mask id="v" fill="#fff">
                <use xlink:href="#u"/>
            </mask>
            <path fill="#484848" d="M28.482 13.698c-.007 3.641-1.277 7.136-3.366 9.952l-.29.826c-1.76 3.637-5.114 5.83-9.204 6.02l.342-.019.277-.02.376-.035.395-.048.489-.075c.942-.177 1.71-.342 3.035-.845l.766-.33c.966-.48 1.067-.53 1.688-.916l.838-.568c.365-.285.852-.669 1.203-.972l.784-.756c.278-.31.654-.722.919-1.045l.67-.905c.213-.336.504-.78.7-1.125l.525-1.025c.15-.36.363-.838.498-1.204l.355-1.119c.089-.382.219-.889.29-1.274l.17-1.192c.026-.446.07-1.042.076-1.489l-.048-1.226c-.047-.39-.096-.917-.161-1.305l-.244-1.167c-.11-.372-.244-.87-.37-1.239l-.424-1.086c-.168-.347-.383-.816-.565-1.156l-.584-.983c-.226-.32-.52-.754-.757-1.065l-.717-.852c-.284-.293-.66-.689-.958-.968l-.791-.68c-1.047-.783-1.156-.865-1.986-1.349 3.663 2.081 6.079 6.194 6.069 11.24" mask="url(#v)"/>
        </g>
        <g transform="translate(0 -.502)">
            <mask id="x" fill="#fff">
                <use xlink:href="#w"/>
            </mask>
            <path fill="#454545" d="M1.431 9.157C6.943-1.506 22.416 3.042 25.92 13.683c.96 2.916 1.071 5.357.369 8.162 1.381-2.445 2.188-5.25 2.193-8.147.01-5.046-2.406-9.159-6.07-11.24l-.767-.407c-.346-.16-.809-.37-1.16-.514l-.634-.233c-.223-.07-.519-.167-.743-.232l-.512-.135c-.162-.037-.377-.089-.539-.122L17.63.733l-.43-.07-.373-.05c-.112-.012-.259-.029-.371-.04l-.34-.029a40.992 40.992 0 0 0-.338-.022L15.452.51c-.098-.002-.228-.006-.326-.007l-.325.001-.328.008-.341.016-.35.025-.376.036-.395.047-.492.076c-1.425.27-2.11.49-3.198.913l-.778.345c-1.005.518-1.065.55-1.646.92l-.837.58c-.359.287-.838.671-1.182.977l-.778.767c-.274.312-.646.724-.905 1.05l-.662.914c-.208.337-.495.784-.688 1.13L1.33 9.34c-.138.341-.336.794-.46 1.141l.38-.942c.055-.114.123-.269.181-.382" mask="url(#x)"/>
        </g>
        <g transform="translate(0 -.502)">
            <mask id="z" fill="#fff">
                <use xlink:href="#y"/>
            </mask>
            <path fill="#454545" d="M28.482 13.698c-.005 2.897-.812 5.702-2.192 8.146l-.156.901c-1.222 4.474-4.963 6.78-8.054 7.444l.529-.122c.76-.202 1.102-.297 1.927-.613l.766-.33c.966-.48 1.067-.53 1.688-.916l.838-.568c.365-.285.852-.669 1.203-.972l.784-.756c.278-.31.654-.722.919-1.045l.67-.905c.213-.336.504-.78.7-1.125l.525-1.025c.15-.36.363-.838.498-1.204l.355-1.119c.089-.382.219-.889.29-1.274l.17-1.192c.026-.446.07-1.042.076-1.489l-.048-1.226c-.047-.39-.096-.917-.161-1.305l-.244-1.167c-.11-.372-.244-.87-.37-1.239l-.424-1.086c-.168-.347-.383-.816-.565-1.156l-.584-.983c-.226-.32-.52-.754-.757-1.065l-.717-.852c-.284-.293-.66-.689-.958-.968l-.791-.68c-1.047-.783-1.156-.865-1.986-1.349 3.663 2.081 6.079 6.194 6.069 11.24" mask="url(#z)"/>
        </g>
        <g transform="translate(0 -.502)">
            <mask id="B" fill="#fff">
                <use xlink:href="#A"/>
            </mask>
            <path fill="#434343" d="M4.019 5.438c8.907-8.434 23.84 1.378 23.498 12.454-.016.51-.09 1.186-.156 1.69a16.39 16.39 0 0 0 1.12-5.884c.01-5.046-2.405-9.159-6.068-11.24l-.768-.408a34.071 34.071 0 0 0-1.16-.512l-.634-.234c-.223-.07-.52-.167-.743-.232l-.512-.135c-.162-.037-.377-.089-.54-.122L17.63.735c-.13-.022-.3-.051-.43-.07l-.373-.05c-.112-.012-.26-.03-.37-.04l-.341-.03-.338-.022-.326-.013c-.098-.002-.228-.006-.326-.007L14.8.503c-.098.003-.23.005-.328.01l-.341.015c-.105.008-.245.016-.35.025l-.376.035c-.118.016-.277.034-.395.048l-.492.076c-1.425.27-2.11.49-3.198.913l-.778.345c-1.004.519-1.065.55-1.646.92l-.837.58c-.36.286-.838.671-1.182.977l-.778.766c-.274.314-.645.726-.905 1.05l-.662.915-.113.168.475-.665c.323-.386.759-.897 1.124-1.244" mask="url(#B)"/>
        </g>
        <g transform="translate(0 -.502)">
            <mask id="D" fill="#fff">
                <use xlink:href="#C"/>
            </mask>
            <path fill="#434343" d="M28.482 13.698a16.39 16.39 0 0 1-1.121 5.884l.03.811c-.593 5.458-4.21 7.876-6.311 8.831l.767-.366c.346-.19.806-.445 1.143-.65l.838-.568c.365-.285.852-.669 1.203-.972l.784-.756c.278-.31.654-.722.919-1.045l.67-.905c.213-.336.504-.78.7-1.125l.525-1.025c.15-.36.363-.838.498-1.204l.355-1.119c.089-.382.219-.889.29-1.274l.17-1.192c.026-.446.07-1.042.076-1.489l-.048-1.226c-.047-.39-.096-.917-.161-1.305l-.244-1.167c-.11-.372-.244-.87-.37-1.239l-.424-1.086c-.168-.347-.383-.816-.565-1.156l-.584-.983c-.226-.32-.52-.754-.757-1.065l-.717-.852c-.284-.293-.66-.689-.958-.968l-.791-.68c-1.047-.783-1.156-.865-1.986-1.349 3.663 2.081 6.079 6.194 6.069 11.24" mask="url(#D)"/>
        </g>
        <g transform="translate(0 -.502)">
            <mask id="F" fill="#fff">
                <use xlink:href="#E"/>
            </mask>
            <path fill="#575757" d="M11.591 29.683c8.313 1.228 15.354-8.05 7.541-17.997C14.16 5.353 1.943 5.053.57 15.278c-.898 6.674 4.253 13.405 11.022 14.405" mask="url(#F)"/>
        </g>
        <g transform="translate(0 -.502)">
            <mask id="H" fill="#fff">
                <use xlink:href="#G"/>
            </mask>
            <path fill="#5A5A5A" d="M10.725 29.352c8.706 1.898 14.389-7.367 9.354-15.254-6.085-9.534-16.892-7.16-18.997-.173-1.97 6.543 2.625 13.896 9.643 15.427" mask="url(#H)"/>
        </g>
        <g transform="translate(0 -.502)">
            <mask id="J" fill="#fff">
                <use xlink:href="#I"/>
            </mask>
            <path fill="#5C5C5C" d="M8.391 28.464c8.063 3.294 15.755-3.164 11.721-13.11C16.953 7.565 4.718 5.2 1.476 13.69-.851 19.78 3.253 26.365 8.391 28.464" mask="url(#J)"/>
        </g>
        <g transform="translate(0 -.502)">
            <mask id="L" fill="#fff">
                <use xlink:href="#K"/>
            </mask>
            <path fill="#5F5F5F" d="M8.413 28.29c7.992 3.35 14.721-3.678 11.428-11.935-3.33-8.348-14.71-10.198-17.907-2.912-2.689 6.13 1.18 12.624 6.48 14.846" mask="url(#L)"/>
        </g>
        <g transform="translate(0 -.502)">
            <mask id="N" fill="#fff">
                <use xlink:href="#M"/>
            </mask>
            <path fill="#616161" d="M8.454 28.098c7.255 2.88 14.377-3.058 10.694-11.806C15.826 8.399 4.782 7.056 2.023 14.21c-1.7 4.404-.412 10.628 6.431 13.888" mask="url(#N)"/>
        </g>
        <g transform="translate(0 -.502)">
            <mask id="P" fill="#fff">
                <use xlink:href="#O"/>
            </mask>
            <path fill="#646464" d="M5.898 26.396c9.007 6.035 14.953-1.812 13.399-8.07-2.064-8.318-13.35-11.271-16.773-4.39-3.128 6.29 1.949 11.506 3.374 12.46" mask="url(#P)"/>
        </g>
        <g transform="translate(0 -.502)">
            <mask id="R" fill="#fff">
                <use xlink:href="#Q"/>
            </mask>
            <path fill="#666" d="M8.803 27.72c7.174 2.563 12.21-4.58 9.37-10.476C13.966 8.507 4.39 8.803 2.228 15.767c-1.002 3.226-.078 9.072 6.575 11.953" mask="url(#R)"/>
        </g>
        <g transform="translate(0 -.502)">
            <mask id="T" fill="#fff">
                <use xlink:href="#S"/>
            </mask>
            <path fill="#696969" d="M6.062 25.934c2.836 2.167 6.257 2.334 8.17 1.38 1.382-.69 4.533-2.792 3.949-7.422C17.228 12.35 7.839 8.35 3.83 13.777c-4.031 5.453.373 10.737 2.232 12.157" mask="url(#T)"/>
        </g>
        <g transform="translate(0 -.502)">
            <mask id="V" fill="#fff">
                <use xlink:href="#U"/>
            </mask>
            <path fill="#6C6C6C" d="M6.18 25.67c.145.13 2.837 1.543 3.58 1.652 1.875.277 2.571.2 4.381-.48.032-.013 3.201-1.58 3.512-5.485C18.158 15 9.632 8.83 4.519 13.73 1.793 16.339 1.45 21.41 6.18 25.67" mask="url(#V)"/>
        </g>
        <g transform="translate(0 -.502)">
            <mask id="X" fill="#fff">
                <use xlink:href="#W"/>
            </mask>
            <path fill="#6E6E6E" d="M6.605 25.566c.04.028 4.062 2.811 7.43.671 3.443-2.188 2.863-5.597 2.615-7.052-.12-.703-.613-2.54-2.602-4.424-.323-.306-1.081-1.024-4.12-1.944-.035-.01-3.778-.752-5.945 2.534C2.17 18.1 2.659 22.787 6.605 25.566" mask="url(#X)"/>
        </g>
        <g transform="translate(0 -.502)">
            <mask id="Z" fill="#fff">
                <use xlink:href="#Y"/>
            </mask>
            <path fill="#717171" d="M6.98 25.379c.65.465 4.052 1.73 5.56.88 1.552-.877 4.15-2.346 3.545-6.024-.226-1.376-.436-2.127-.437-2.13-.165-.295-2.498-3.265-2.6-3.31-2.862-1.237-2.862-1.237-4.216-1.157-1.69.1-2.71.16-4.165 1.656-1.025 1.055-3.054 6.256 2.313 10.085" mask="url(#Z)"/>
        </g>
        <g transform="translate(0 -.502)">
            <mask id="ab" fill="#fff">
                <use xlink:href="#aa"/>
            </mask>
            <path fill="#737373" d="M6.21 24.124c1.825 1.677 3.867 2.183 6.07 1.503.013-.005 1.541-.667 2.132-1.481l1.036-2.876c.008-.083-.689-3.104-.73-3.169-.739-1.16-1.55-2.279-3.34-3.226-.834-.441-1.437-.76-4.284-.336-.119.018-1.759 1.072-1.973 1.268-.039.036-3.208 4.372 1.088 8.317" mask="url(#ab)"/>
        </g>
        <g transform="translate(0 -.502)">
            <mask id="ad" fill="#fff">
                <use xlink:href="#ac"/>
            </mask>
            <path fill="#767676" d="M8.206 24.936c.415.24 2.173.366 2.186.364l1.638-.34 1.272-.777c.121-.148.295-.343.37-.517l.866-2.398c.004-.053-.724-3.09-.756-3.155-.55-1.095-3.699-2.884-3.722-2.886-.735-.058-2.704-.008-2.886.072-.508.225-2.105 2.117-2.114 2.131-.12.223-.552 1.86-.538 2.04.001.01.205 1.35.955 3.139.04.093 2.513 2.203 2.73 2.327" mask="url(#ad)"/>
        </g>
        <g transform="translate(0 -.502)">
            <mask id="af" fill="#fff">
                <use xlink:href="#ae"/>
            </mask>
            <path fill="#787878" d="M7.636 23.722c.013.008 1.568.816 2.384.917l1.762-.406c.185-.144.252-.484.375-.682.273-.436.656-1.008.98-1.408.185-.231.547-.567.487-.857-.3-1.446-1.002-3.125-1.007-3.131-.039-.054-2.359-1.618-2.433-1.64-.094-.028-2.769-.011-2.835.019-.077.035-1.356 1.256-1.949 2.114-.537.776.71 3.708.726 3.732.338.503.995 1.023 1.51 1.342" mask="url(#af)"/>
        </g>
        <g transform="translate(0 -.502)">
            <mask id="ah" fill="#fff">
                <use xlink:href="#ag"/>
            </mask>
            <path fill="#7B7B7B" d="M9.374 23.334l1.962-.604c.404-.28.832-.887.892-1.376l-1.158-3.098c-.207-.158-.47-.439-.728-.473-.196-.025-2.695-.011-2.757.016-.428.184-.92.681-1.074 1.122-.084.239.271 3.019.408 3.199.017.022 2.425 1.212 2.455 1.214" mask="url(#ah)"/>
        </g>
        <g transform="translate(0 -.502)">
            <mask id="aj" fill="#fff">
                <use xlink:href="#ai"/>
            </mask>
            <path fill="#7D7D7D" d="M8.751 21.828c.113.006.25-.09.355-.13l-.514-.306c.016.116-.014.29.055.383.02.03.07.05.104.053" mask="url(#aj)"/>
        </g>
        <g>
            <g transform="translate(0 -.502)">
                <mask id="al" fill="#fff">
                    <use xlink:href="#ak"/>
                </mask>
                <path fill="#545454" d="M7.609 28.553C-3.946 21.847-1.837 4.63 10.977 1.059c2.688-.75 6.852-1.114 11.436 1.399C20.296 1.255 17.76.73 15.039 1.097c2.722-.366 5.257.158 7.374 1.36 12.737 7.819 8.25 24.835-4.051 27.67-5.193 1.197-9.25-.702-10.753-1.574" mask="url(#al)"/>
            </g>
            <g transform="translate(0 -.502)">
                <mask id="an" fill="#fff">
                    <use xlink:href="#am"/>
                </mask>
                <path fill="#545454" d="M22.413 2.458c.963.57 1.729 1.085 2.776 2.029l.785.777c.268.311.634.721.89 1.044l.662.92c.206.336.49.782.68 1.127l.512 1.036c.145.361.348.839.477 1.207l.341 1.128c.083.382.206.89.272 1.277l.154 1.197c.018.401.055.934.055 1.334l-.05 1.225c-.055.437-.118 1.022-.194 1.456l-.26 1.16c-.116.37-.257.868-.387 1.233l-.439 1.077c-.172.346-.395.813-.584 1.152l-.593.969c-.23.32-.533.752-.777 1.061l-.718.834c-.293.293-.68.688-.985.967l-.79.662c-.371.27-.866.627-1.25.878l-.755.444c-.988.508-1.049.538-1.7.802l-.544.202c-.76.25-1.543.507-2.979.718l-.39.047c-.114.011-.267.027-.381.036l-.35.025-.34.016-.33.009-.325.001-.326-.007c-.097-.004-.226-.008-.325-.013l-.336-.021c-.103-.009-.24-.019-.344-.03l-.364-.039c-.114-.015-.266-.034-.379-.05l-.414-.068c-.133-.025-.31-.057-.442-.085l-.497-.111c-.166-.044-.39-.1-.554-.146l-.617-.19c-.23-.081-.534-.187-.76-.274l-.767-.327a32.612 32.612 0 0 1-1.163-.594l-.853-.525c-.39-.276-.909-.65-1.284-.947l-.814-.721c-.295-.301-.692-.701-.973-1.015l-.706-.875c-.226-.328-.536-.761-.748-1.099l-.565-.999c-.165-.353-.395-.82-.546-1.181l-.4-1.098c-.104-.375-.254-.874-.342-1.254l-.218-1.175a33.08 33.08 0 0 1-.153-2.179l.052-1.225c.046-.393.1-.917.166-1.307l.247-1.165c.112-.372.249-.872.376-1.238l.427-1.083c.17-.349.387-.818.571-1.158l.585-.978c.228-.321.523-.756.764-1.067l.715-.844c.288-.295.668-.691.97-.973l.789-.675c.364-.27.85-.629 1.228-.882l.763-.458C8.668 1.9 8.707 1.88 9.32 1.625l.55-.213c.989-.336 1.693-.557 3.142-.775L13.4.59c.115-.011.268-.028.381-.036l.35-.026.342-.015.329-.009.325-.001.324.007.326.012.336.022c.105.009.24.018.343.029l.366.039c.113.016.265.034.378.051l.416.067c.131.026.31.058.442.085l.497.112c.166.044.387.099.553.145l.616.191c.23.081.535.187.76.274l.765.326c.352.173.826.396 1.164.595-2.117-1.203-4.651-1.728-7.374-1.361l-.037.015c-12.62 3.88-8.366 17.159-1.068 21.543 8.63 5.182 17.85-1.533 15.415-11.226-1.165-4.629-4.59-10.18-14.31-10.332 2.723-.367 5.257.158 7.374 1.361" mask="url(#an)"/>
            </g>
            <g transform="translate(0 -.502)">
                <mask id="ap" fill="#fff">
                    <use xlink:href="#ao"/>
                </mask>
                <path fill="#525252" d="M22.413 2.458c.963.57 1.729 1.085 2.776 2.029l.785.777c.268.311.634.721.89 1.044l.662.92c.206.336.49.782.68 1.127l.512 1.036c.145.361.348.839.477 1.207l.341 1.128c.083.382.206.89.272 1.277l.154 1.197c.018.401.055.934.055 1.334l-.05 1.225c-.055.437-.118 1.022-.194 1.456l-.26 1.16c-.116.37-.257.868-.387 1.233l-.439 1.077c-.172.346-.395.813-.584 1.152l-.593.969c-.23.32-.533.752-.777 1.061l-.718.834c-.293.293-.68.688-.985.967l-.79.662c-.371.27-.866.627-1.25.878l-.755.444c-.988.508-1.049.538-1.7.802l-.544.202c-.76.25-1.543.507-2.979.718l-.39.047c-.114.011-.267.027-.381.036l-.35.025-.34.016-.33.009-.325.001-.326-.007c-.097-.004-.226-.008-.325-.013l-.336-.021c-.103-.009-.24-.019-.344-.03l-.364-.039c-.114-.015-.266-.034-.379-.05l-.414-.068c-.133-.025-.31-.057-.442-.085l-.497-.111c-.166-.044-.39-.1-.554-.146l-.617-.19c-.23-.081-.534-.187-.76-.274l-.767-.327a32.612 32.612 0 0 1-1.163-.594l-.853-.525c-.39-.276-.909-.65-1.284-.947l-.814-.721c-.295-.301-.692-.701-.973-1.015l-.706-.875c-.226-.328-.536-.761-.748-1.099l-.565-.999c-.165-.353-.395-.82-.546-1.181l-.4-1.098c-.104-.375-.254-.874-.342-1.254l-.218-1.175a33.08 33.08 0 0 1-.153-2.179l.052-1.225c.046-.393.1-.917.166-1.307l.247-1.165c.112-.372.249-.872.376-1.238l.427-1.083c.17-.349.387-.818.571-1.158l.585-.978c.228-.321.523-.756.764-1.067l.715-.844c.288-.295.668-.691.97-.973l.789-.675c.364-.27.85-.629 1.228-.882l.763-.458C8.668 1.9 8.707 1.88 9.32 1.625l.55-.213c.989-.336 1.693-.557 3.142-.775L13.4.59c.115-.011.268-.028.381-.036l.35-.026.342-.015.329-.009.325-.001.324.007.326.012.336.022c.105.009.24.018.343.029l.366.039c.113.016.265.034.378.051l.416.067c.131.026.31.058.442.085l.497.112c.166.044.387.099.553.145l.616.191c.23.081.535.187.76.274l.765.326c.352.173.826.396 1.164.595a11.236 11.236 0 0 0-2.535-1.053l-.89-.245C7.517-1.021 2.945 10.892 9.273 19.35c6.418 8.58 19.037 6.724 20.459-3.009.913-6.254-3.506-12.953-9.854-14.936.895.249 1.744.604 2.535 1.053" mask="url(#ap)"/>
            </g>
            <g transform="translate(0 -.502)">
                <mask id="ar" fill="#fff">
                    <use xlink:href="#aq"/>
                </mask>
                <path fill="#4F4F4F" d="M29.196 10.598c.164.493.412 1.237.613 2.405l.153 1.198c.018.4.055.933.056 1.334l-.051 1.224c-.055.438-.12 1.023-.194 1.456l-.26 1.16c-.115.37-.256.869-.386 1.234l-.44 1.076c-.173.347-.394.813-.583 1.152l-.594.969c-.23.32-.532.752-.776 1.062l-.72.834c-.292.292-.678.687-.983.966l-.791.662c-.371.27-.866.627-1.25.878l-.754.445c-.99.507-1.05.538-1.7.8l-.545.204c-.76.25-1.543.506-2.98.717l-.388.047c-.115.01-.268.028-.382.036l-.35.026-.341.015-.33.009h-.324l-.325-.006c-.098-.004-.228-.007-.325-.012l-.337-.022c-.103-.01-.24-.018-.343-.03L13.2 30.4c-.113-.016-.265-.034-.378-.051l-.415-.067c-.133-.026-.311-.058-.442-.085l-.498-.112c-.166-.044-.388-.1-.553-.145l-.617-.191c-.23-.081-.535-.187-.76-.274l-.766-.326a32.636 32.636 0 0 1-1.163-.595l-.853-.524c-.391-.277-.91-.651-1.285-.948l-.813-.72c-.295-.302-.692-.701-.973-1.016l-.706-.875c-.226-.328-.536-.761-.748-1.1l-.565-.998c-.165-.353-.396-.82-.546-1.18l-.401-1.1c-.104-.374-.254-.873-.342-1.253l-.218-1.175a33.099 33.099 0 0 1-.153-2.178l.05-1.226c.049-.392.102-.917.167-1.307l.248-1.165c.112-.372.248-.872.375-1.238l.428-1.083c.17-.348.387-.817.57-1.158l.586-.978c.228-.321.524-.755.765-1.067l.714-.844c.288-.295.668-.691.97-.972l.789-.675c.364-.271.85-.63 1.229-.883l.762-.458C8.668 1.9 8.707 1.88 9.32 1.625l.55-.213c.988-.335 1.692-.556 3.14-.775L13.4.59c.114-.011.267-.027.38-.036l.35-.025.342-.016.328-.01h.326l.325.007c.098.004.228.008.326.013l.336.02.343.03.365.04c.113.015.265.034.378.05l.416.068c.132.025.309.057.44.085l.498.11c.166.045.389.1.554.147l.617.19c.229.08.533.188.76.274l.765.327c.35.172.819.406 1.163.594a16.043 16.043 0 0 0-.34-.185 357.53 357.53 0 0 1-.882-.431C10.86-2.54 3.38 6.497 6.486 15.484c3.62 10.474 17.693 13.534 22.145 4.814 1.595-3.127 1.719-6.361.39-10.18.052.145.126.335.175.48" mask="url(#ar)"/>
            </g>
            <g transform="translate(0 -.502)">
                <mask id="at" fill="#fff">
                    <use xlink:href="#as"/>
                </mask>
                <path fill="#4F4F4F" d="M22.413 2.458c.24.143.558.341.796.486l-.904-.546-.232-.126c.113.061.227.123.34.186" mask="url(#at)"/>
            </g>
            <g transform="translate(0 -.502)">
                <mask id="av" fill="#fff">
                    <use xlink:href="#au"/>
                </mask>
                <path fill="#4D4D4D" d="M30.018 15.534c-.067 1.587-.071 1.682-.245 2.681l-.26 1.16c-.115.37-.257.868-.387 1.233l-.438 1.076c-.174.347-.396.814-.584 1.153l-.594.968c-.23.321-.532.752-.776 1.062l-.72.834c-.292.293-.68.687-.983.967l-.791.662c-.371.27-.867.627-1.25.878l-.754.444c-.99.508-1.05.538-1.7.802l-.545.202c-.76.25-1.543.507-2.98.718l-.39.047c-.114.01-.266.027-.38.036l-.35.025-.341.016-.33.01h-.324l-.325-.007c-.098-.004-.228-.008-.325-.013l-.337-.02c-.103-.01-.241-.02-.343-.03l-.365-.04c-.114-.015-.265-.034-.378-.05l-.415-.068c-.133-.025-.311-.058-.443-.085l-.497-.11c-.166-.045-.388-.1-.554-.147l-.617-.19c-.228-.08-.534-.188-.76-.275l-.765-.326a33.448 33.448 0 0 1-1.163-.594l-.854-.525c-.39-.276-.91-.65-1.284-.947l-.813-.72c-.295-.303-.693-.702-.973-1.016l-.706-.875c-.227-.329-.536-.76-.748-1.099l-.566-.999c-.165-.354-.395-.82-.545-1.18l-.401-1.099c-.104-.375-.255-.874-.343-1.254l-.217-1.175a33.131 33.131 0 0 1-.154-2.179l.052-1.225c.048-.393.1-.917.166-1.307l.248-1.165c.11-.372.248-.872.375-1.238l.428-1.083c.17-.349.387-.818.57-1.159l.586-.977c.228-.32.524-.756.765-1.068l.714-.843c.288-.295.668-.692.969-.973l.789-.675c.365-.27.852-.63 1.23-.883l.762-.458c1.008-.53 1.047-.55 1.662-.806l.55-.213c.988-.336 1.692-.557 3.14-.775L13.4.59c.114-.01.266-.028.38-.036l.35-.026c.103-.005.24-.012.342-.015L14.8.504h.325l.326.006c.097.003.228.007.326.012l.336.022c.103.01.24.018.342.03l.366.038c.113.016.264.034.378.051l.416.067c.13.026.309.058.44.085l.498.112c.166.044.389.1.554.145l.617.191.38.131-.161-.057C9.997-1.839 1.289 7.003 7.212 18.557c4.609 8.99 18.644 10.775 22.183.461.223-.646.897-2.613.45-5.79l.135 1.202.038 1.104" mask="url(#av)"/>
            </g>
            <g transform="translate(0 -.502)">
                <mask id="ax" fill="#fff">
                    <use xlink:href="#aw"/>
                </mask>
                <path fill="#4A4A4A" d="M29.773 18.215c-.345 1.537-.352 1.566-.646 2.394l-.44 1.076c-.173.346-.394.813-.583 1.152l-.594.969c-.23.32-.532.752-.776 1.06l-.72.835c-.292.293-.678.688-.983.967l-.791.662c-.371.27-.866.627-1.25.878l-.754.445c-.99.507-1.05.538-1.7.8l-.545.203c-.76.25-1.543.507-2.98.718l-.388.047c-.116.01-.268.027-.382.036l-.35.026-.341.015-.33.009h-.324l-.325-.006c-.098-.004-.228-.008-.325-.013l-.337-.021-.343-.03-.365-.038-.378-.051-.415-.068c-.133-.025-.311-.057-.443-.085l-.497-.111c-.166-.044-.388-.1-.553-.145l-.618-.191c-.228-.081-.534-.187-.76-.274l-.765-.326a33.47 33.47 0 0 1-1.163-.595l-.854-.525c-.39-.276-.91-.65-1.284-.947l-.813-.72c-.295-.302-.693-.702-.973-1.016l-.706-.875c-.227-.328-.536-.761-.748-1.1l-.565-.998c-.165-.353-.396-.82-.546-1.18l-.401-1.1c-.104-.374-.255-.873-.342-1.253l-.218-1.175a33.101 33.101 0 0 1-.154-2.178l.052-1.226c.048-.393.1-.917.166-1.307l.248-1.165c.112-.372.248-.872.375-1.238l.428-1.083c.17-.35.387-.817.57-1.158l.586-.978c.228-.321.524-.756.765-1.067l.714-.844c.288-.295.668-.691.969-.973l.79-.674c.364-.271.85-.63 1.229-.883l.762-.458C8.668 1.9 8.707 1.88 9.32 1.625l.55-.213c.988-.336 1.692-.556 3.14-.775L13.4.59c.114-.011.267-.027.38-.036l.35-.026.342-.015.328-.01h.326l.325.007c.097.004.228.008.326.013l.336.02.343.03.365.039c.113.016.264.035.378.05L17.168.66C5.207-.873.984 12.768 8.102 21.128c7.343 8.623 21.219 7.117 21.905-5.07.005-.1.006-.232.009-.33l-.067 1.22c-.052.38-.1.89-.176 1.267" mask="url(#ax)"/>
            </g>
            <g transform="translate(0 -.502)">
                <mask id="az" fill="#fff">
                    <use xlink:href="#ay"/>
                </mask>
                <path fill="#484848" d="M29.773 18.215c-.14.692-.272 1.346-.646 2.394l-.44 1.076c-.173.346-.394.813-.583 1.152l-.594.969c-.23.32-.532.752-.776 1.06l-.72.835c-.292.293-.678.688-.983.967l-.791.662c-.371.27-.866.627-1.25.878l-.754.445c-.99.507-1.05.538-1.7.8l-.545.203c-.76.25-1.543.507-2.98.718l-.388.047c-.116.01-.268.027-.382.036l-.35.026-.341.015-.33.009h-.324l-.325-.006c-.098-.004-.228-.008-.325-.013l-.337-.021-.343-.03-.365-.038-.378-.051-.415-.068c-.133-.025-.311-.057-.443-.085l-.497-.111c-.166-.044-.388-.1-.553-.145l-.618-.191c-.228-.081-.534-.187-.76-.274l-.765-.326a33.47 33.47 0 0 1-1.163-.595l-.854-.525c-.39-.276-.91-.65-1.284-.947l-.813-.72c-.295-.302-.693-.702-.973-1.016l-.706-.875c-.227-.328-.536-.761-.748-1.1l-.565-.998c-.165-.353-.396-.82-.546-1.18l-.401-1.1c-.104-.374-.255-.873-.342-1.253l-.218-1.175a33.101 33.101 0 0 1-.154-2.178l.052-1.226c.048-.393.1-.917.166-1.307l.248-1.165c.112-.372.248-.872.375-1.238l.428-1.083c.17-.35.387-.817.57-1.158l.586-.978c.228-.321.524-.756.765-1.067l.714-.844c.288-.295.668-.691.969-.973l.79-.674c.364-.271.85-.63 1.229-.883l.762-.458C8.668 1.9 8.707 1.88 9.32 1.625l.55-.213c.988-.336 1.692-.556 3.14-.775L13.4.59c.114-.011.267-.027.38-.036l.35-.026.27-.012-.312.015c-10.386.817-14.514 14.7-4.074 23.383 7.604 6.324 18.135 3.257 19.769-5.758l-.011.059" mask="url(#az)"/>
            </g>
            <g transform="translate(0 -.502)">
                <mask id="aB" fill="#fff">
                    <use xlink:href="#aA"/>
                </mask>
                <path fill="#454545" d="M29.126 20.608c-.248.646-.48 1.255-1.022 2.23l-.594.967c-.23.321-.532.752-.777 1.062l-.719.834c-.292.293-.679.687-.984.967l-.79.662c-.372.27-.867.627-1.25.878l-.755.444c-.989.508-1.048.538-1.7.802l-.545.202c-.759.25-1.543.507-2.978.718l-.39.047c-.115.01-.267.027-.382.036l-.348.025-.342.016-.329.008-.325.001-.326-.006c-.097-.004-.227-.008-.325-.013l-.337-.022c-.102-.008-.24-.018-.343-.029l-.365-.039c-.113-.016-.264-.034-.378-.05l-.415-.068c-.133-.026-.31-.058-.442-.085l-.497-.11c-.166-.045-.389-.1-.554-.147l-.617-.19c-.229-.08-.534-.188-.76-.275l-.765-.326c-.352-.173-.82-.406-1.164-.595l-.853-.524c-.39-.276-.909-.65-1.284-.947l-.814-.72c-.295-.303-.692-.702-.972-1.017l-.706-.875c-.227-.328-.537-.76-.749-1.098l-.565-.999c-.165-.354-.395-.82-.546-1.18l-.4-1.1c-.105-.375-.255-.874-.343-1.254l-.218-1.174a33.177 33.177 0 0 1-.153-2.179l.052-1.226c.048-.392.1-.917.166-1.306l.248-1.165c.111-.372.248-.872.375-1.239l.427-1.083c.17-.348.387-.817.572-1.158l.585-.977c.227-.322.523-.756.764-1.068l.714-.843c.288-.295.668-.692.97-.973l.79-.675c.363-.27.851-.63 1.23-.883l.76-.458c1.01-.53 1.048-.552 1.662-.806l.55-.213a15.48 15.48 0 0 1 2.097-.595l-.363.077c-10.3 2.562-12.164 17.96-.222 25.038 5.395 3.2 14.574 3.102 17.771-5.4-.009.022-.019.054-.027.076" mask="url(#aB)"/>
            </g>
            <g transform="translate(0 -.502)">
                <mask id="aD" fill="#fff">
                    <use xlink:href="#aC"/>
                </mask>
                <path fill="#434343" d="M26.734 24.867c-.921 1.067-.996 1.154-1.703 1.801l-.791.662c-.371.27-.866.627-1.25.878l-.754.444c-.99.508-1.05.538-1.7.802l-.545.202c-.76.25-1.543.507-2.98.718l-.388.047c-.116.01-.268.027-.382.036l-.35.025-.341.016-.33.01h-.324l-.325-.007c-.098-.004-.228-.008-.325-.013l-.337-.02-.343-.03-.365-.04c-.113-.015-.265-.034-.378-.05l-.415-.068c-.133-.025-.311-.058-.443-.085l-.497-.11c-.166-.045-.388-.1-.553-.147l-.618-.19c-.228-.08-.534-.188-.76-.275l-.765-.326a34.367 34.367 0 0 1-1.163-.594l-.854-.525c-.39-.276-.91-.65-1.284-.947l-.813-.72c-.295-.303-.693-.702-.973-1.016l-.706-.875c-.226-.329-.536-.76-.748-1.099l-.565-.999c-.165-.354-.396-.82-.546-1.18l-.401-1.099c-.104-.375-.255-.874-.342-1.254l-.218-1.175a33.131 33.131 0 0 1-.154-2.179l.052-1.225c.048-.393.1-.917.166-1.307l.248-1.165c.112-.372.248-.872.375-1.238l.428-1.083c.17-.349.387-.818.57-1.159l.586-.977c.228-.32.524-.756.765-1.068l.714-.843c.288-.295.668-.692.97-.973l.789-.675c.364-.27.85-.63 1.229-.883l.762-.458c.373-.197.873-.454 1.256-.632l-.501.236C-1.401 7.287.31 23.297 14.179 28.227c.83.296 8.262 2.676 13.425-4.564l-.65.923-.22.281" mask="url(#aD)"/>
            </g>
            <g transform="translate(0 -.502)">
                <mask id="aF" fill="#fff">
                    <use xlink:href="#aE"/>
                </mask>
                <path fill="#575757" d="M24.288 3.85c7.701 5.938 6.687 17.737-1.695 19.73-9.192 2.183-18.327-9.215-13.966-17.423C11.617.533 18.642-.503 24.288 3.85" mask="url(#aF)"/>
            </g>
            <g transform="translate(0 -.502)">
                <mask id="aH" fill="#fff">
                    <use xlink:href="#aG"/>
                </mask>
                <path fill="#5A5A5A" d="M24.372 4.03c7.442 5.821 6.46 17.002-1.669 18.988-8.816 2.155-17.698-8.798-13.576-16.74C12.012.717 18.851-.29 24.372 4.028" mask="url(#aH)"/>
            </g>
            <g transform="translate(0 -.502)">
                <mask id="aJ" fill="#fff">
                    <use xlink:href="#aI"/>
                </mask>
                <path fill="#5C5C5C" d="M26.733 6.582c5.418 7.199 1.495 16.542-6.771 16.123-9.266-.469-14.925-12.662-8.651-18.638C16.454-.83 23.57 2.381 26.733 6.582" mask="url(#aJ)"/>
            </g>
            <g transform="translate(0 -.502)">
                <mask id="aL" fill="#fff">
                    <use xlink:href="#aK"/>
                </mask>
                <path fill="#5F5F5F" d="M26.701 6.76c5.12 6.977 1.244 15.883-6.69 15.372-8.132-.524-14.468-11.534-8.167-17.973C16.012-.098 23.253 2.062 26.7 6.76" mask="url(#aL)"/>
            </g>
            <g transform="translate(0 -.502)">
                <mask id="aN" fill="#fff">
                    <use xlink:href="#aM"/>
                </mask>
                <path fill="#616161" d="M26.635 6.938c4.802 6.71.986 15.175-6.586 14.608C12.287 20.965 6.26 10.181 12.42 4.25c4.443-4.277 11.386-1.265 14.215 2.688" mask="url(#aN)"/>
            </g>
            <g transform="translate(0 -.502)">
                <mask id="aP" fill="#fff">
                    <use xlink:href="#aO"/>
                </mask>
                <path fill="#646464" d="M24.914 5.303c6.967 6.734 2.704 16.287-4.836 15.642-6.93-.594-13.4-10.133-7.03-16.64 2.485-2.54 8.09-2.652 11.866.998" mask="url(#aP)"/>
            </g>
            <g transform="translate(0 -.502)">
                <mask id="aR" fill="#fff">
                    <use xlink:href="#aQ"/>
                </mask>
                <path fill="#666" d="M26.392 7.293c4.14 5.999.435 13.673-6.293 13.034-7.162-.68-12.355-10.822-6.344-15.971 3.756-3.216 9.877-1.062 12.637 2.937" mask="url(#aR)"/>
            </g>
            <g transform="translate(0 -.502)">
                <mask id="aT" fill="#fff">
                    <use xlink:href="#aS"/>
                </mask>
                <path fill="#696969" d="M27.61 10.53c1.63 5.976-4.223 11.65-10.591 8.106-4.33-2.409-5.286-6.24-5.325-9.032-.02-1.39 1.473-5.293 5.11-6.253 4.32-1.139 9.47 2.282 10.806 7.178" mask="url(#aT)"/>
            </g>
            <g transform="translate(0 -.502)">
                <mask id="aV" fill="#fff">
                    <use xlink:href="#aU"/>
                </mask>
                <path fill="#6C6C6C" d="M26.605 8.804c3.115 7.104-2.893 12.756-9.595 9.026-6.165-3.43-6.16-12.374.01-14.072 4.075-1.122 8.329 2.183 9.585 5.046" mask="url(#aV)"/>
            </g>
            <g transform="translate(0 -.502)">
                <mask id="aX" fill="#fff">
                    <use xlink:href="#aW"/>
                </mask>
                <path fill="#6E6E6E" d="M26.977 10.92c.94 5.268-4.156 9.388-9.981 6.104-.04-.022-4.02-2.322-3.927-7.328l.815-2.85c.17-.224 1.706-2.21 3.346-2.66 3.688-1.012 8.859 1.765 9.747 6.734" mask="url(#aX)"/>
            </g>
            <g transform="translate(0 -.502)">
                <mask id="aZ" fill="#fff">
                    <use xlink:href="#aY"/>
                </mask>
                <path fill="#717171" d="M26.592 11.11c.218 1.442-.69 3.805-.7 3.822-.42.715-.652 1.11-2.904 2.31-.929.494-4.434.133-5.999-1.014-.17-.126-2.49-3.073-2.613-3.32-.1-.205-.629-3.002-.6-3.184.704-4.478 3.774-5.157 5.061-5.24 3.164-.208 7.128 2.463 7.755 6.626" mask="url(#aZ)"/>
            </g>
            <g transform="translate(0 -.502)">
                <mask id="bb" fill="#fff">
                    <use xlink:href="#ba"/>
                </mask>
                <path fill="#737373" d="M25.94 10.51c.608 2.174-.926 4.61-1.043 4.7-.437.339-1.854 1.249-1.97 1.267-2.84.423-3.232.216-4.28-.336-3.7-1.952-3.951-4.955-4.073-6.4l1.035-2.877c.575-.791 2.119-1.474 2.134-1.48 2.126-.834 6.713-.186 8.198 5.126" mask="url(#bb)"/>
            </g>
            <g transform="translate(0 -.502)">
                <mask id="bd" fill="#fff">
                    <use xlink:href="#bc"/>
                </mask>
                <path fill="#767676" d="M25.498 11.544c.013 2.385-2.489 4.132-2.65 4.17-.337.084-2.683.142-2.886.072-.124-.042-2.925-1.963-3.09-2.118-.217-.204-.53-.486-.63-.767-.049-.137-.75-3.058-.758-3.157-.025-.301.271-.65.373-.934.158-.437.341-1.028.494-1.466.245-.71 1.652-1.555 3.28-1.634.013-.001 1.73.114 2.186.364.162.089 2.281 1.885 2.728 2.33.177.175.951 2.729.953 3.14" mask="url(#bd)"/>
            </g>
            <g transform="translate(0 -.502)">
                <mask id="bf" fill="#fff">
                    <use xlink:href="#be"/>
                </mask>
                <path fill="#787878" d="M24.79 11.768c-.027 1.009-2.08 2.694-2.102 2.697-.297.044-2.72.073-2.85.033-.07-.021-2.389-1.584-2.43-1.638-.172-.224-1.04-2.918-1.01-3.134.02-.141.082-.326.158-.447.282-.451.761-.981 1.058-1.422.21-.311.331-.848.624-1.08.032-.026 1.713-.411 1.764-.405.837.103 2.373.909 2.383.917.482.368 1.224.809 1.511 1.343.244.453.903 2.769.893 3.136" mask="url(#bf)"/>
            </g>
            <g transform="translate(0 -.502)">
                <mask id="bh" fill="#fff">
                    <use xlink:href="#bg"/>
                </mask>
                <path fill="#7B7B7B" d="M23.51 12.094c-.164.436-.613 1.053-1.073 1.12-.19.027-2.56.04-2.757.015-.257-.033-.564-.27-.726-.471l-1.16-3.1c.058-.49.486-1.097.891-1.378l1.962-.604 2.45 1.189c.143.183.502 2.99.412 3.229" mask="url(#bh)"/>
            </g>
            <g transform="translate(0 -.502)">
                <mask id="bj" fill="#fff">
                    <use xlink:href="#bi"/>
                </mask>
                <path fill="#7D7D7D" d="M21.432 9.623l-.522-.308c.108-.04.246-.138.361-.131.036.002.086.024.106.052.069.096.038.271.055.387" mask="url(#bj)"/>
            </g>
        </g>
    </g>
</svg>
